<svg width="1018" height="728" viewBox="0 0 1018 728" fill="none" xmlns="http://www.w3.org/2000/svg">
<path d="M700.459 90.3302C697.896 89.9153 693.176 89.9591 690.056 90.4572C682.96 91.6614 669.721 96.9492 662.17 101.634C659.008 103.569 656.277 105.139 656.049 105C655.897 104.907 655.787 103.378 655.968 101.714C656.245 97.4982 654.624 89.7241 652.951 86.8243C652.106 85.4738 649.876 83.4871 647.9 82.2815C644.631 80.2877 643.837 80.2211 639.215 81.4729C633.001 83.111 627.915 87.0033 623.142 93.8012C616.796 102.667 617.822 102.353 610.22 97.7159C600.718 91.9199 593.198 90.5692 587.339 93.6768C581.742 96.5264 580.22 101.757 582.756 109.568C583.593 111.958 585.49 115.516 587.125 117.453C590.272 121.356 605.468 133.549 613.585 138.709C630.351 149.353 692.181 185.293 695.458 186.248C700.44 187.826 710.843 185.819 716.583 182.222C721.433 179.229 726.421 172.249 726.744 167.958C727.403 157.815 720.615 150.647 704.197 144.391C700.131 142.85 696.706 141.283 696.571 140.992C696.558 140.671 698.807 138.18 701.639 135.419C712.013 125.252 717.252 113.414 715.369 104.018C713.795 96.1679 709.2 91.9033 700.459 90.3302ZM708.841 102.751C712.619 110.066 707.38 121.904 695.364 133.053C689.578 138.606 689.038 139.32 689.051 141.521C689.239 144.976 689.771 145.3 703.402 150.483C711.459 153.518 713.376 154.479 716.484 157.419C720.746 161.376 721.909 165.113 720.378 169.503C718.645 174.396 714.724 177.747 708.324 179.689C697.99 182.781 701.034 184.116 659.255 158.736C638.912 146.432 616.956 133.353 610.356 129.64C596.926 122.075 592.724 118.363 589.082 111.339C587.877 109.038 587.019 105.487 587.187 103.502C587.321 100.034 587.46 99.8055 589.959 98.6154C594.497 96.4768 599.589 97.7038 608.711 103.268C614.564 106.838 617.258 108.064 618.284 107.75C619.111 107.42 622.239 104.003 625.218 99.9739C634.075 88.36 640.782 84.2038 645.875 87.3104C649.22 89.3506 650.968 98.4551 649.548 106.254C648.668 111.459 648.736 112.545 650.332 113.518C651.928 114.492 653.537 113.907 661.333 109.162C672.92 102.136 676.537 100.48 686.243 97.7355C698.029 94.4853 705.41 96.0643 708.841 102.751Z" fill="url(#paint0_linear_58_713)"/>
<path d="M637.792 162.974C633.536 164.137 626.31 168.29 625.15 170.192C623.896 172.246 626.084 173.789 629.221 173.093C636.014 171.703 644.404 165.129 642.482 162.808C642.089 162.255 639.966 162.317 637.792 162.974Z" fill="url(#paint1_linear_58_713)"/>
<path d="M666.202 182.913C665.054 183.257 662.246 184.781 659.76 186.292C651.61 191.447 651.392 195.908 659.514 192.51C667.589 189.188 673.505 180.687 666.202 182.913Z" fill="url(#paint2_linear_58_713)"/>
<path d="M597.32 144.342C594.352 144.933 588.337 148.468 587.316 150.142C586.341 151.739 587.309 153.06 589.492 153.243C593.828 153.487 603.569 146.067 600.985 144.49C600.377 144.119 598.743 144.062 597.32 144.342Z" fill="url(#paint3_linear_58_713)"/>
<path d="M627.341 191.051C624.554 191.857 620.662 193.45 618.683 194.643C615.766 196.518 615.319 197.08 615.767 198.398C616.498 200.619 619.306 200.974 623.777 199.63C628.049 198.268 632.936 194.359 633.412 192.04C633.842 189.797 632.896 189.637 627.341 191.051Z" fill="url(#paint4_linear_58_713)"/>
<path d="M592.066 170.055C590.647 169.816 584.632 173.351 583.564 175.101C583.193 175.71 583.324 176.52 583.856 176.845C585.681 177.958 588.467 177.152 591.603 174.576C595.169 171.636 595.3 170.567 592.066 170.055Z" fill="url(#paint5_linear_58_713)"/>
<path d="M320.602 117.878C290.91 123.276 284.803 144.931 307.153 165.677C322.226 179.594 347.825 192.145 367.057 195.007C374.334 196.047 385.119 195.462 390.577 193.706C398.633 191.17 403.636 184.536 402.467 178.033C400.647 168.213 388.043 158.523 371.345 154.231C360.885 151.565 344.057 151.305 343.212 153.841C342.888 154.816 344.187 155.012 355.102 155.857C366.082 156.702 374.269 158.783 382.39 162.75C392.461 167.693 398.308 174.196 398.308 180.439C398.308 187.073 389.472 191.69 376.608 191.69C355.362 191.69 326.125 178.618 308.972 161.45C300.851 153.321 297.992 148.248 297.992 141.615C297.927 138.103 298.252 136.867 299.746 134.266C308.323 119.634 339.899 117.228 376.868 128.413C397.074 134.461 411.758 140.639 423.907 148.053C432.484 153.321 439.241 156.052 434.888 152.475C431.379 149.549 415.461 139.794 409.029 136.607C392.591 128.413 367.512 120.544 349.515 117.878C341.263 116.707 327.034 116.707 320.602 117.878Z" fill="url(#paint6_linear_58_713)"/>
<path d="M340.809 139.729C335.546 140.51 330.478 143.111 328.854 145.777C326.84 149.029 327.035 153.646 329.374 157.288C333.532 163.921 345.552 170.945 358.156 174.131C364.263 175.692 374.529 176.603 375.179 175.562C375.828 174.522 374.919 174.196 369.331 173.416C354.063 171.335 334.117 160.54 331.972 153.256C330.868 149.679 331.972 147.663 336.196 145.582C338.924 144.216 340.549 143.956 347.891 143.696C357.052 143.371 362.574 144.151 374.269 147.208C388.823 151.045 406.04 158.589 417.41 166.132C425.142 171.205 434.238 180.114 436.902 185.122C440.41 191.69 439.111 198.063 433.263 203.071C421.504 213.151 397.399 215.817 368.357 210.159C353.673 207.298 348.93 205.607 322.422 193.641C319.043 192.145 316.184 191.105 315.989 191.3C315.015 192.21 316.899 193.901 323.006 197.478C335.676 205.022 352.504 211.135 368.681 214.061C393.566 218.679 413.902 217.508 427.871 210.615C434.108 207.493 438.006 204.307 440.41 200.274C441.905 197.673 442.165 196.503 442.165 192.341C442.165 188.243 441.84 186.813 440.215 183.561C437.552 178.228 427.741 168.474 419.814 163.206C395.775 147.338 359.975 136.673 340.809 139.729Z" fill="url(#paint7_linear_58_713)"/>
<path d="M284.283 170.944C283.373 172.31 284.738 177.513 287.207 182.455C291.105 190.194 299.551 199.624 299.551 196.177C299.551 195.722 297.472 192.21 294.938 188.308C292.405 184.471 289.221 178.813 287.792 175.757C286.362 172.7 285.063 170.229 284.933 170.229C284.803 170.229 284.478 170.554 284.283 170.944Z" fill="url(#paint8_linear_58_713)"/>
<path d="M457.108 185.187C456.913 185.512 457.238 187.463 457.823 189.414C458.797 192.796 458.797 193.316 457.758 196.438C457.173 198.323 455.808 201.315 454.769 203.136C452.69 206.843 452.365 208.599 453.859 208.599C455.029 208.599 458.342 204.176 460.421 199.819C462.63 195.202 462.501 191.43 460.032 187.593C458.017 184.342 457.758 184.146 457.108 185.187Z" fill="url(#paint9_linear_58_713)"/>
<path d="M720.132 252.115C719.05 252.804 714.809 256.075 710.761 259.339L703.361 265.258L698.282 263.157C691.423 260.337 681.245 257.438 678.388 257.537C676.895 257.589 675.677 258.087 674.927 258.959C673.179 261.037 674.687 263.262 684.311 272.688C689.091 277.402 692.877 281.565 692.763 282.025C692.646 282.419 689.998 284.789 686.9 287.304C683.802 289.82 680.275 293.066 679.023 294.476C676.772 297.027 676.772 297.027 676.64 304.45C676.413 316.626 672.003 331.876 665.61 342.445C657.068 356.668 641.817 372.36 624.817 384.534C617.144 390.072 615.201 392.157 615.981 394.017C616.971 396.325 623.918 394.196 642.097 386.015C655.218 380.093 675.016 368.016 688.12 357.865C701.414 347.576 714.112 333.209 718.828 323.024C719.614 321.305 720.977 319.37 721.803 318.821C723.26 317.729 724.087 315.358 726.842 302.963L728.022 297.651L731.766 296.87C738.731 295.261 745.861 292.801 747.182 291.519C747.936 290.777 748.478 289.521 748.448 288.676C748.381 286.727 746.656 285.746 735.383 281.257C730.768 279.401 726.674 277.591 726.34 277.342C725.937 276.966 725.871 273.194 726.203 267.782C726.705 257.938 726.012 252.952 724.014 251.59C722.482 250.537 722.482 250.537 720.132 252.115ZM722.477 261.599C722.574 264.394 722.484 269.277 722.268 272.408L721.948 278.146L723.894 279.9C725.032 280.837 729.396 282.962 733.548 284.575C741.326 287.623 743.773 288.839 743.209 289.444C743.019 289.581 739.291 290.817 734.847 292.013C726.546 294.449 724.381 295.761 723.847 299.098C722.926 304.401 721.086 313.185 720.603 314.243C720.057 315.368 719.925 315.307 718.697 313.658C717.947 312.643 715.604 308.82 713.46 305.121C711.315 301.421 708.715 297.672 707.704 296.666C705.489 294.661 702.95 294.554 693.457 296.381C686.675 297.658 681.812 298.023 681.785 297.243C681.776 296.983 685.178 293.871 689.349 290.407C695.793 285.043 696.921 283.832 696.869 282.337C696.79 280.062 694.615 277.34 686.731 269.35C681.205 263.751 679.845 262.041 680.884 262.005C681.079 261.999 686.142 263.644 692.061 265.586L702.85 269.245L707.172 266.427C709.525 264.913 713.646 261.907 716.176 259.866C718.768 257.759 721.246 256.111 721.575 256.23C722.034 256.344 722.371 258.545 722.477 261.599ZM700.952 306.272C693.389 331.783 676.686 354.358 653.452 370.459C647.677 374.499 637.854 379.916 637.824 379.071C637.82 378.941 641.095 375.899 645.063 372.247C654.265 363.923 663.146 353.853 667.953 346.268C675.41 334.491 679.93 320.538 680.038 308.691L680.186 301.723L685.118 301.487C687.845 301.392 692.702 300.832 695.868 300.267C699.098 299.699 701.951 299.469 702.22 299.72C702.551 299.904 701.941 302.919 700.952 306.272ZM709.345 306.435C710.176 307.903 712.237 311.085 713.881 313.5C715.59 315.914 716.966 318.078 716.973 318.273C717 319.053 711.754 327.109 707.283 333.121C695.792 348.553 676.119 364.204 651.737 377.221C639.353 383.768 634.867 385.616 643.402 380.569C658.247 371.853 667.619 364.695 677.604 354.587C691.043 340.974 700.947 322.93 704.506 305.627C705.447 300.91 705.444 300.845 706.665 302.299C707.277 303.058 708.511 304.902 709.345 306.435Z" fill="url(#paint10_linear_58_713)"/>
<path d="M660.127 280.167C660.006 280.431 659.755 286.296 659.603 293.134C659.232 308.634 657.904 319.027 654.616 331.05C651.906 340.97 651.654 343.061 653.017 343.013C654.9 342.948 657.646 337.777 660.399 329.091C662.629 322.181 663.536 316.488 663.847 306.717C664.35 293.164 662.09 276.78 660.127 280.167Z" fill="url(#paint11_linear_58_713)"/>
<path d="M741.106 305.59C740.616 306.453 739.231 309.625 737.971 312.662C733.356 323.885 725.516 335.871 714.516 348.552C708.513 355.398 707.477 357.386 709.814 357.305C711.438 357.249 719.453 350.332 724.015 345.033C728.14 340.269 735.106 329.355 737.946 323.14C741.693 315.005 744.367 304.045 742.549 304.109C742.225 304.12 741.598 304.792 741.106 305.59Z" fill="url(#paint12_linear_58_713)"/>
<path d="M637.79 357.533C635.039 360.688 634.583 362.525 636.466 362.46C637.7 362.417 642.25 356.793 642.2 355.363C642.141 353.673 640.35 354.516 637.79 357.533Z" fill="url(#paint13_linear_58_713)"/>
<path d="M685.674 367.906C682.482 369.578 680.451 371.016 680.474 371.665C680.522 373.03 681.816 372.855 686.748 370.731C691.422 368.682 693.699 366.846 693.011 365.763C692.258 364.683 691.226 364.914 685.674 367.906Z" fill="url(#paint14_linear_58_713)"/>
<path d="M189.865 343.04C187.137 348.041 187.562 353.981 191.178 360.911C198.812 375.444 221.804 386.637 243.858 386.495C250.06 386.445 249.841 386.362 249.531 388.827C249.131 391.835 251.259 393.35 255.209 392.836C257.791 392.423 258.321 392.603 260.564 394.836C263.928 398.185 266.292 403.372 267.36 409.65C268.13 414.622 268.089 416.012 266.923 431.099C266.178 440.2 266.557 443.29 268.844 447.813C272.416 455.016 278.363 457.951 288.319 457.448C290.442 457.285 297.329 456.183 303.649 454.848C318.637 451.773 320.54 451.527 325.414 451.631C330.483 451.674 335.015 453.864 339.258 458.103C343.744 462.568 346.364 467.332 349.366 476.304C351.401 482.369 352.123 483.932 353.03 484.081C354.534 484.282 354.529 482.605 353.023 476.161C351.087 467.784 349.278 464.039 344.402 457.693C340.679 452.84 339.429 451.656 336.485 450.007C329.069 445.805 324.052 445.724 305.983 449.41C290.368 452.615 285.572 453.176 280.794 452.203C275.979 451.177 273.388 448.794 271.545 443.553C270.318 439.95 270.303 434.917 271.558 421.847C272.615 410.842 270.336 401.429 265.105 395.258C263.453 393.402 261.596 391.373 261.021 390.905C260.112 390.197 260.096 389.728 260.962 388.706C262.693 386.662 262.89 384.039 261.411 381.979C260.159 380.236 260.121 380.183 263.816 374.968C277.18 355.927 282.538 332.866 276.444 320.59C271.11 309.929 260.565 308.053 249.927 315.851C244.159 320.072 240.194 325.801 236.451 335.293C234.725 339.574 233.013 343.205 232.583 343.273C232.137 343.433 228.976 342.26 225.458 340.703C209.724 333.826 194.375 334.839 189.865 343.04ZM202.19 341.157C208.072 340.216 213.409 341.188 222.349 344.616C226.993 346.406 231.538 347.946 232.513 347.967C235.551 348.187 237.464 346.173 239.285 341.023C241.445 335.23 245.141 328.013 247.543 325.008C250.329 321.647 255.946 317.774 259.291 316.973C268.124 314.795 273.621 321.336 273.664 333.874C273.711 344.968 267.686 362.423 259.622 374.697C257.892 377.3 255.889 379.859 255.203 380.351C253.462 381.602 241.094 381.755 233.823 380.65C223.014 378.964 212.659 374.79 204.316 368.851C200.099 365.874 194.714 358.372 193.568 353.991C191.773 347.034 194.925 342.29 202.19 341.157Z" fill="url(#paint15_linear_58_713)"/>
<path d="M369.147 559.241C367.299 558.825 365.618 559.873 366.424 560.99C367.07 561.995 371.405 562.479 372.484 561.726C373.218 561.127 371.336 559.737 369.147 559.241Z" fill="url(#paint16_linear_58_713)"/>
<path d="M295.375 513.85C294.88 514.218 293.909 515.84 293.241 517.594C291.358 522.227 291.028 522.473 287.412 522.093C281.837 521.457 281.44 523.162 286.111 527.369L288.942 529.897L287.417 534.7C286.532 537.333 286.009 539.901 286.286 540.412C286.869 541.849 290.35 540.945 294.009 538.422L297.322 536.054L299.343 537.701C300.814 538.885 301.656 539.154 302.528 538.811C303.619 538.382 303.671 537.626 303.144 534.405C302.456 530.279 302.742 529.527 305.97 526.941C308.868 524.601 308.552 523.351 304.915 523.115C303.44 522.959 301.895 522.675 301.576 522.452C301.203 522.192 300.252 520.261 299.466 518.207C297.84 514.062 296.8 512.941 295.375 513.85ZM297.351 521.014L297.908 522.828L296.289 522.651C294.851 522.442 294.728 522.277 295.104 520.716C295.342 519.692 295.612 518.85 295.724 518.69C296.095 518.157 296.848 519.236 297.351 521.014ZM298.154 529.975C296.889 531.789 296.799 531.806 294.773 530.394C293.387 529.428 292.774 528.604 292.97 527.868C293.424 525.966 294.047 525.528 296.171 525.661C299.052 525.845 299.827 527.575 298.154 529.975ZM289.761 526.108C289.576 526.375 289.176 526.493 288.857 526.27C288.59 526.084 288.51 525.632 288.695 525.365C288.919 525.045 289.334 525.017 289.6 525.203C289.92 525.426 289.985 525.788 289.761 526.108ZM292.774 535.421C289.95 537.655 289.417 537.283 290.818 534.137C291.576 532.367 291.795 532.281 293.021 533.136C294.3 534.027 294.279 534.171 292.774 535.421Z" fill="url(#paint17_linear_58_713)"/>
<path d="M340.456 546.775C339.145 546.496 338.006 546.654 337.906 547.139C337.44 548.716 343.54 550.986 345.151 549.81C346.05 549.089 343.364 547.375 340.456 546.775Z" fill="url(#paint18_linear_58_713)"/>
<path d="M326.938 540.604C324.61 539.854 323.726 539.872 323.349 540.64C322.856 541.802 323.48 542.157 328.615 543.993C330.639 544.611 332.168 544.804 332.503 544.324C333.172 543.364 331.003 541.931 326.938 540.604Z" fill="url(#paint19_linear_58_713)"/>
<path d="M310.299 533.684C307.502 532.924 305.783 533.232 306.025 534.59C306.202 535.585 315.482 538.406 316.38 537.685C317.279 536.964 313.633 534.581 310.299 533.684Z" fill="url(#paint20_linear_58_713)"/>
<path d="M302.92 540.749C301.973 541.199 303.763 545.221 305.758 547.245C309.534 551.145 308.919 546.119 305.057 542C304.247 541.118 303.356 540.577 302.92 540.749Z" fill="url(#paint21_linear_58_713)"/>
<path d="M190.655 463.773C190.358 464.2 189.759 466.082 189.304 467.984C188.85 469.887 188.325 471.662 188.139 471.928C187.954 472.195 186.292 472.306 184.402 472.177C179.524 471.79 179.154 473.117 183.302 476.483L186.527 479.128L185.31 483.828C184.442 487.346 184.376 488.805 185.154 489.506C186.285 490.611 187.657 489.665 190.26 485.931L192.007 483.423L195.957 485.938C201.116 489.216 202.068 488.532 199.674 483.218C198.728 481.052 197.996 479.035 198.022 478.657C198.048 478.279 199.383 477.386 201.021 476.626C205.501 474.516 204.626 473.272 198.539 472.915L194.759 472.658L193.736 469.012C193.184 466.963 192.899 465.099 193.048 464.886C193.197 464.672 192.866 464.125 192.279 463.716C191.693 463.307 190.953 463.346 190.655 463.773ZM192.622 478.223C191.235 479.872 190.713 479.826 190.407 478.106C190.138 476.333 191.77 475.014 192.864 476.172C193.392 476.778 193.324 477.444 192.622 478.223ZM195.769 482.002C195.743 482.381 195.451 482.573 195.184 482.387C194.864 482.164 194.784 481.712 194.97 481.445C195.193 481.125 195.448 480.986 195.555 481.06C195.715 481.172 195.833 481.571 195.769 482.002Z" fill="url(#paint22_linear_58_713)"/>
<path d="M271.718 519.953C269.199 519.704 269.68 520.832 273.145 523.246C275.064 524.584 276.758 525.448 276.907 525.234C277.986 523.687 274.508 520.154 271.718 519.953Z" fill="url(#paint23_linear_58_713)"/>
<path d="M259.429 512.815C258.107 512.211 257.064 512.118 256.548 512.63C255.83 513.319 256.092 513.739 258.277 515.263C259.663 516.228 261.48 517.257 262.285 517.58C264.022 518.156 265.148 516.881 263.709 515.878C263.123 515.469 262.451 514.842 262.099 514.438C261.8 514.071 260.59 513.307 259.429 512.815Z" fill="url(#paint24_linear_58_713)"/>
<path d="M333.822 567.201L330.613 568.056L327.893 565.368C324.416 561.835 321.283 559.968 320.326 560.886C319.938 561.329 319.851 563.726 320.228 566.367L320.795 571.122L317.91 571.965C316.314 572.438 314.803 573.128 314.58 573.449C314.059 574.195 316.138 575.644 319.697 577.015L322.595 578.084L323.449 582.88C324.663 589.434 325.755 589.798 329.229 584.927L331.885 581.23L334.378 581.857C337.803 582.738 338.615 581.005 336.342 577.677C334.297 574.587 334.264 573.613 336.458 570.465C338.838 567.05 337.957 566.041 333.822 567.201ZM326.727 568.518C327.123 569.428 327.011 569.588 325.563 569.848C324.078 570.16 324.009 570.032 323.59 567.679L323.101 565.199L324.7 566.313C325.606 566.945 326.487 567.954 326.727 568.518ZM330.761 573.866C330.874 574.5 330.582 575.486 330.099 576.18C329.021 577.727 326.129 577.217 325.087 575.303C324.275 573.627 324.849 572.917 327.367 572.373C329.613 571.877 330.471 572.237 330.761 573.866ZM327.632 581.991C326.852 583.111 326.798 583.074 326.455 581.408C326.176 580.104 326.33 579.656 326.995 579.724C328.31 579.768 328.562 580.657 327.632 581.991Z" fill="url(#paint25_linear_58_713)"/>
<path d="M241.01 501.405C240.365 501.193 239.657 501.413 239.429 501.968C239.069 502.826 239.527 503.304 241.734 504.684C244.867 506.551 246.523 506.674 245.855 505.02C245.428 503.929 243.013 502.167 241.01 501.405Z" fill="url(#paint26_linear_58_713)"/>
<path d="M224.275 491.327C223.95 491.338 223.455 491.707 223.158 492.134C222.823 492.614 223.581 493.459 226.086 495.205C229.497 497.582 231.51 497.876 230.703 495.966C230.222 494.838 225.126 491.127 224.275 491.327Z" fill="url(#paint27_linear_58_713)"/>
<path d="M280.444 532.773C278.012 533.535 276.997 534.651 278.063 535.394C278.969 536.025 282.758 535.02 283.502 533.953C284.357 532.726 282.658 532.096 280.444 532.773Z" fill="url(#paint28_linear_58_713)"/>
<path d="M311.418 554.123C310.637 555.243 314.018 561.642 315.194 561.432C316.551 561.188 316.345 558.984 314.776 556.463C313.223 554.033 312.05 553.216 311.418 554.123Z" fill="url(#paint29_linear_58_713)"/>
<path d="M210.452 484.229C209.131 483.625 208.14 483.569 207.806 484.05C206.616 485.757 213.336 489.41 214.845 487.925C215.728 487.114 214.576 486.153 210.452 484.229Z" fill="url(#paint30_linear_58_713)"/>
<path d="M271.052 536.136C268.156 536.654 264.746 538.479 264.907 539.384C265.23 541.194 272.495 539.52 274.094 537.226C275.06 535.838 274.219 535.569 271.052 536.136Z" fill="url(#paint31_linear_58_713)"/>
<path d="M200.102 494.534C199.545 495.334 200.498 498.853 201.462 499.287C203.034 499.986 203.692 498.701 202.598 496.749C201.455 494.525 200.623 493.787 200.102 494.534Z" fill="url(#paint32_linear_58_713)"/>
<path d="M308.052 570.088C304.714 570.219 306.033 572.644 309.44 572.641C310.377 572.66 311.319 572.445 311.542 572.125C312.026 571.431 309.676 570.031 308.052 570.088Z" fill="url(#paint33_linear_58_713)"/>
<path d="M298.316 568.376C295.675 567.961 293.558 569.181 295.05 570.221C296.489 571.224 301.564 571.67 302.159 570.816C302.903 569.749 301.426 568.799 298.316 568.376Z" fill="url(#paint34_linear_58_713)"/>
<path d="M204.448 504.776C203.575 505.119 204.282 510.923 205.348 511.666C206.574 512.52 207.433 510.265 206.684 508.158C205.529 504.816 205.267 504.396 204.448 504.776Z" fill="url(#paint35_linear_58_713)"/>
<path d="M250.791 541.911C247.257 542.778 246.087 543.548 246.621 544.713C246.878 545.367 255.314 543.716 255.909 542.863C256.765 541.636 253.963 541.11 250.791 541.911Z" fill="url(#paint36_linear_58_713)"/>
<path d="M206.611 519.284C205.867 520.351 206.896 524.556 208.085 525.464C209.524 526.467 210.081 524.873 209.347 522.063C208.613 519.252 207.466 518.057 206.611 519.284Z" fill="url(#paint37_linear_58_713)"/>
<path d="M264.462 560.476C260.526 559.873 258.723 560.756 260.855 562.242C262.401 563.32 269.644 564.404 270.579 563.63C271.643 562.786 268.451 561.116 264.462 560.476Z" fill="url(#paint38_linear_58_713)"/>
<path d="M237.625 545.576C234.228 545.904 230.419 547.847 230.661 549.205C230.903 550.562 231.643 550.523 236.368 548.743C239.22 547.719 240.428 546.896 240.315 546.262C240.202 545.629 239.376 545.45 237.625 545.576Z" fill="url(#paint39_linear_58_713)"/>
<path d="M249.867 556.645C244.733 555.604 242.891 555.747 243.852 557.209C245.058 559.001 255.209 560.685 255.26 559.135C255.338 558.001 254.48 557.641 249.867 556.645Z" fill="url(#paint40_linear_58_713)"/>
<path d="M219.216 540.514L216.747 541.33L214.421 538.758C213.189 537.344 211.563 535.814 210.816 535.294C208.844 533.92 207.714 536.223 208.428 539.971L209.029 543.085L205.282 543.803C202.929 544.224 201.328 544.931 201.079 545.63C200.607 546.648 201.012 547.089 205.228 549.79L209.817 552.75L209.64 555.163C208.925 564.257 212.246 566.651 215.039 559.006L216.227 555.712L217.836 556.357C222.572 558.311 223.254 558.469 223.775 557.722C224.072 557.295 223.307 555.098 222.074 552.89C219.505 548.167 219.429 547.48 221.289 544.813C224.078 540.811 223.335 539.263 219.216 540.514ZM212.798 542.224C212.612 542.491 212.319 542.683 212.212 542.609C212.053 542.497 211.972 542.045 211.998 541.667C212.061 541.235 212.317 541.096 212.583 541.282C212.903 541.505 213.021 541.904 212.798 542.224ZM215.765 546.829C215.878 547.462 215.364 548.769 214.657 549.782L213.319 551.703L212.803 548.807C212.368 546.363 212.521 545.916 213.591 545.631C215.097 545.174 215.507 545.381 215.765 546.829ZM209.208 548.283C209.054 548.731 208.389 548.663 207.536 548.069C206.257 547.177 206.224 546.996 207.294 546.712C208.672 546.325 209.541 547.01 209.208 548.283Z" fill="url(#paint41_linear_58_713)"/>
<path d="M231.895 551.412C229.45 551.056 227.85 552.556 229.779 553.425C231.814 554.368 237.007 555.213 237.416 554.626C237.974 553.825 234.574 551.773 231.895 551.412Z" fill="url(#paint42_linear_58_713)"/>
<path d="M745.216 615.255C747.513 623.794 751.983 631.082 759.484 638.199C766.23 644.601 770.247 646.98 778.686 649.614C783.508 651.145 786.091 651.446 793.627 651.253C802.265 651.03 802.911 651.106 805.858 653.007C817.231 660.485 837.453 660.149 857.703 652.226C875.995 645.042 900.803 628.725 913.87 615.24C918.344 610.619 919.321 609.306 919.113 608.392C918.654 606.702 917.705 607.325 910.294 613.906C893.051 629.431 873.023 642.222 855.546 648.925C842.167 654.142 828.513 655.965 818.207 653.977C814.092 653.117 807.449 650.575 807.382 649.795C807.375 649.52 809.317 648.228 811.672 646.88C816.698 643.946 818.981 641.635 821.079 637.535C823.264 633.248 822.967 629.026 820.214 625.786C817.369 622.549 815.738 621.717 812.102 621.581C807.959 621.412 804.285 623.299 800.987 627.246C796.622 632.508 795.671 638.234 798.165 643.825C798.85 645.371 799.167 646.926 798.809 647.303C797.915 648.246 787.796 648.138 782.986 647.066C768.974 644.07 755.89 632.728 749.147 617.821C747.777 614.729 746.33 612.192 746.007 612.154C744.805 611.909 744.599 612.788 745.216 615.255ZM807.033 626.355C809.795 624.767 814.765 624.915 816.652 626.706C820.332 630.197 819.729 635.179 814.851 640.224C810.826 644.465 804.914 646.916 803.027 645.126C800.669 642.887 799.799 637.852 801.03 634.004C802.352 630.154 803.776 628.37 807.033 626.355Z" fill="url(#paint43_linear_58_713)"/>
<path d="M840.373 642.05C841.6 643.214 849.133 642.928 855.119 641.533C863.022 639.629 869.052 636.393 877.69 629.274C881.65 626.046 882.982 624.264 882.039 623.369C881.284 622.653 879.195 623.626 873.183 627.505C862.468 634.355 853.968 638.022 845.312 639.302C840.319 640.029 839.052 640.797 840.373 642.05Z" fill="url(#paint44_linear_58_713)"/>
<path d="M929.473 558.928C929.644 560.165 931.722 563.928 935.852 570.535L938.736 575.242L934.46 585.606C929.536 597.503 929.118 599.077 930.392 600.286C931.901 601.718 934.629 600.544 941.935 595.207C945.769 592.396 949.199 590.008 949.656 589.905C950.615 589.65 954.531 593.366 960.556 600.337C966.201 606.859 966.899 607.163 969.717 604.194C970.7 603.157 975.795 594.198 980.958 584.318C986.212 574.435 991.513 564.597 992.833 562.357C995.649 557.594 996.226 555.097 994.82 554.121C994.212 553.723 990.166 553.735 985.67 554.127C981.175 554.518 971.113 554.823 963.295 554.748C939.427 554.58 937.497 554.63 934.608 554.934C931.72 555.238 929.288 557.14 929.473 558.928ZM946.474 558.491C952.683 558.561 961.788 558.603 966.661 558.57C971.534 558.536 975.814 558.656 976.139 558.786C976.742 559 973.468 560.372 953.447 568.243C944.619 571.689 941.745 572.544 941.313 571.866C936.5 563.805 934.222 559.404 934.669 558.933C934.937 558.65 940.22 558.468 946.474 558.491ZM964.741 567.585C982.32 561.248 985.241 560.437 982.317 562.857C972.508 570.926 955.399 582.814 949.181 585.871C946.958 586.985 943.472 589.052 941.398 590.577C939.321 592.01 937.286 593.303 936.874 593.36C936.462 593.417 936.992 590.874 938.106 587.811C939.128 584.75 940.358 580.902 940.776 579.328L941.575 576.503L944.754 575.042C946.573 574.259 955.54 570.856 964.741 567.585ZM959.337 583.954C963.362 581.414 983.53 566.964 984.782 565.644C985.992 564.464 984.65 567.579 981.192 574.151C979.177 577.881 975.426 585.518 972.816 591.102C970.251 596.64 967.895 601.39 967.626 601.673C967.134 602.191 965.528 600.577 956.948 590.913C955.337 589.115 954.235 587.442 954.503 587.159C954.727 586.924 956.94 585.441 959.337 583.954Z" fill="url(#paint45_linear_58_713)"/>
<path d="M302.242 645.02C301.402 645.372 297.946 648.23 294.495 651.437C291.045 654.645 287.339 657.748 286.225 658.286L284.176 659.285L279.454 648.02C274.782 636.875 274.707 636.695 272.79 636.16C268.846 634.995 265.874 637.157 255.411 648.869C251.697 652.962 248.417 656.239 248.162 656.135C247.907 656.031 247.737 647.719 247.854 637.736C247.946 627.694 247.909 618.692 247.748 617.632C247.171 614.07 243.261 611.975 239.902 613.383C237.563 614.363 234.234 618.365 222.827 633.714C216.48 642.292 210.378 650.275 209.199 651.332C205.075 655.456 204.61 652.833 206.563 634.614C208.928 611.995 208.931 605.442 206.459 607.112C205.3 607.88 204.571 611.356 202.377 626.647C199.155 648.568 199.68 656.379 204.476 658.737C208.115 660.522 212.204 656.484 226.116 637.69C240.226 618.531 241.484 617.158 242.363 619.255C242.615 619.854 242.677 626.732 242.501 634.555C242.061 656.72 242.494 661.118 245.408 662.855C247.676 664.229 250.399 662.313 257.991 653.847C267.306 643.602 269.793 641.291 270.899 641.743C271.495 641.987 272.625 644.683 274.431 650.337C278.802 663.792 281.273 666.491 287.09 664.052C290.989 662.418 293.51 660.022 299.439 652.465C304.315 646.265 305.18 643.788 302.242 645.02Z" fill="url(#paint46_linear_58_713)"/>
<path d="M769.343 306.543C767.87 312.932 769.838 324.075 773.16 328.291C777.867 334.322 778.305 334.603 781.579 335.16C787.963 336.169 795.42 332.616 799.983 326.589C803.328 322.097 804.136 317.828 802.131 314.69C801.407 313.53 800.484 312.32 800.046 312.039C798.369 311.04 793.099 310.824 789.018 311.525L784.722 312.319L782.907 307.681C781.488 303.992 780.635 302.672 778.938 301.583C776.092 299.757 774.432 299.695 772.387 301.317C770.217 303.012 770.096 303.321 769.343 306.543ZM776.186 305.993C776.788 306.379 777.799 308.417 778.395 310.498C780.506 317.565 781.292 318.147 788.212 316.875C796.3 315.348 798.512 315.996 797.747 319.596C796.784 324.228 791.04 328.725 784.213 330.211L779.508 331.283L777.79 329.023C775.391 326.018 774.172 322.379 773.775 317.338C773.089 309.255 774.106 304.659 776.186 305.993Z" fill="url(#paint47_linear_58_713)"/>
<path d="M714.383 394.484C711.562 403.095 715.18 412.75 723.171 417.878L727.058 420.371L721.045 429.019C710.638 444.034 698.275 456.558 685.071 465.455C680.938 468.284 677.539 470.812 677.598 471.081C677.849 472.015 681.383 470.963 685.544 468.692C699.746 461.13 716.269 445.254 727.365 428.443L732.492 420.693L736.034 420.11C748.493 417.914 758.744 406.273 764.099 388.172C766.122 381.287 768.055 371.41 769.603 360.207C770.764 351.534 770.788 348.847 769.802 348.215C768.872 347.618 767.666 351.785 765.397 363.992C759.91 392.895 753.923 405.959 742.966 412.438C740.023 414.255 735.505 415.756 734.684 415.229C734.465 415.089 734.558 414.222 734.9 413.207C735.262 412.281 735.832 408.864 736.227 405.72C737.039 399.757 736.345 394.217 734.297 390.664C732.696 387.861 728.591 385.227 725.704 385.15C721.102 384.977 716.197 389.009 714.383 394.484ZM723.91 390.716C725.808 389.926 728.266 391.272 729.848 393.985C732.099 397.823 731.873 407.327 729.424 413.553C728.836 414.951 728.496 415.119 727.082 414.674C722.708 413.181 718.653 406.255 718.692 400.413C718.656 396.376 721.099 391.845 723.91 390.716Z" fill="url(#paint48_linear_58_713)"/>
<path d="M303.907 235.568C304.329 236.621 305.555 240.839 306.57 244.957C309.432 256.55 313.811 264.235 318.114 265.296C319.828 265.761 320.461 265.6 322.31 264.336C324.46 262.896 327.224 258.538 327.629 255.98C327.789 255.299 328.217 254.643 328.603 254.585C329.641 254.495 339.792 261.64 343.311 264.921C346.135 267.519 348.644 271.083 348.905 272.818C349.147 274.424 345.923 278.786 341.866 282.419C332.994 290.324 329.699 295.09 329.617 300.228C329.585 308.314 340.584 314.543 363.815 319.458C376.112 322.075 378.733 323.323 377.207 325.853C376.843 326.499 373.67 329.013 370.157 331.447C359.258 339 356.179 343.012 357.02 348.601C357.871 354.255 365.33 360.557 374.595 363.565C380.319 365.332 386.339 366.003 387.213 364.82C388.033 363.711 387.061 362.938 384.235 362.509C375.671 361.104 364.775 355.122 362.664 350.709C360.617 346.286 361.264 345.335 372.747 337.299C380.781 331.688 383.047 329.705 383.944 327.796C386.887 321.571 382.783 317.458 370.965 314.965C354.918 311.467 348.956 309.867 344.37 307.798C339.433 305.584 336.361 303.089 336.052 301.033C335.675 298.528 338.352 294.905 345.415 288.521C354.377 280.339 355.894 277.745 355.034 272.027C354.599 269.136 353.933 267.331 352.363 265.202C349.873 261.766 341.555 255.002 336.487 252.348L332.839 250.4L336.662 248.708C341.173 246.78 342.906 244.746 343.814 240.733C346.28 229.586 332.515 222.459 313.994 225.246C306.663 226.349 303.657 227.787 303.079 230.502C302.598 232.545 302.749 233.114 303.907 235.568ZM313.482 230.579C329.311 228.263 341.934 233.919 337.316 241.25C336.033 243.217 335.85 243.311 329.365 244.352C325.709 244.968 322.374 245.535 321.934 245.667C320.86 245.96 321.279 247.869 322.771 249.484C323.855 250.569 324.016 251.202 323.682 253.354C323.387 255.764 320.662 260.379 319.504 260.553C318.797 260.66 315.741 256.52 314.534 253.745C313.936 252.39 312.362 247.173 311.074 242.111C309.731 237.122 308.505 232.905 308.357 232.796C307.321 232.032 309.173 231.227 313.482 230.579Z" fill="url(#paint49_linear_58_713)"/>
<path d="M797.751 493.369C796.137 493.343 793.521 494.17 790.724 495.701C788.324 496.975 786.186 498.045 786.051 498.1C785.917 498.156 785.075 495.957 784.201 493.299C782.447 487.893 780.394 485.502 776.784 484.601C774.16 483.955 769.853 485.637 767.718 488.09C762.899 493.724 763.609 506.069 769.34 515.714C773.187 522.08 773.254 521.707 764.611 532.031L757.2 540.841L757.072 534.953C756.843 524.924 751.398 514.753 746.244 514.835C744.22 514.884 742.359 516.627 741.881 519.056C741.287 521.816 741.858 528.779 742.909 531.332C743.973 534.069 748.114 540.691 750.578 543.699L752.233 545.657L748.816 548.89C741.029 556.252 725.377 565.82 710.178 572.593C702.304 575.998 700.979 576.828 701.861 577.595C703.772 579.259 721.489 572.265 733.887 564.951C741.771 560.347 751.381 553.365 753.772 550.618C755.608 548.509 757.131 548.541 761.568 550.766C769.96 554.88 781.742 554.704 788.532 550.269C792.416 547.786 792.681 542.93 788.959 541.07C785.232 539.118 776.469 538.992 766.959 540.714L763.683 541.311L766.836 537.59C768.538 535.536 771.416 531.834 773.227 529.358C776.422 524.896 776.556 524.841 780.43 523.557C786.559 521.563 791.499 518.362 796.49 513.223C801.993 507.495 803.655 504.2 803.426 499.516C803.227 495.291 801.487 493.431 797.751 493.369ZM799.52 500.341C799.595 504.114 794.857 510.25 788.703 514.549C782.939 518.498 777.648 520.618 776.954 519.238C776.684 518.658 775.426 516.442 774.217 514.268C770.823 508.469 769.728 505.274 769.339 500.279C768.918 494.825 770.188 491.189 773.175 489.737C777.359 487.602 779.904 491.111 780.343 499.512C780.825 507.864 782.447 508.672 787.321 503.172C789.2 501.014 793.218 498.476 796.023 497.728C798.009 497.129 799.51 498.176 799.52 500.341ZM785.383 547.355C783.143 548.94 771.575 549.561 767.023 548.358C764.913 547.814 763.212 547.195 763.193 546.92C763.086 545.361 777.83 543.366 783.414 544.175C787.231 544.738 787.801 545.666 785.383 547.355ZM750.982 526.116C751.805 528.04 752.601 531.578 752.759 533.871L753.091 538.041L751.5 537C748.26 534.783 745.364 526.83 746.253 522.345L746.695 520.056L748.067 521.251C748.851 521.933 750.152 524.1 750.982 526.116Z" fill="url(#paint50_linear_58_713)"/>
<path d="M827.304 407.28C826.394 407.995 824.64 410.271 823.47 412.287L821.326 415.994L814.309 416.514C806.123 417.164 804.434 417.685 803.459 419.831C802.289 422.367 803.199 424.123 808.007 429C810.541 431.472 812.62 433.943 812.62 434.398C812.62 434.853 811.84 437.845 810.931 440.966C809.956 444.153 809.371 447.275 809.631 447.86C810.216 449.486 812.62 448.835 818.792 445.324C821.651 443.698 824.315 442.332 824.64 442.332C825.03 442.332 827.044 443.243 829.188 444.283C833.736 446.494 835.945 446.689 838.024 444.998C839.323 443.958 839.583 443.047 839.778 438.885L840.038 433.943L844.066 431.407C849.264 427.96 851.473 425.944 851.993 423.798C852.772 420.546 848.744 418.335 842.052 418.27C838.089 418.27 836.14 417.295 835.62 415.213C834.905 412.287 833.021 408.19 831.787 407.019C830.357 405.589 829.383 405.654 827.304 407.28ZM829.513 416.059C829.513 416.579 829.058 416.969 828.538 416.969C827.434 416.969 827.369 416.839 827.953 415.409C828.408 414.238 829.513 414.628 829.513 416.059ZM817.818 423.147C817.818 423.993 816.258 427.375 815.869 427.375C815.089 427.375 811.321 424.123 811.321 423.473C811.321 423.147 811.97 422.822 812.815 422.692C814.179 422.497 817.818 422.822 817.818 423.147ZM829.708 423.408C831.397 424.058 831.722 424.773 832.436 428.675C832.826 430.886 832.761 431.016 829.318 432.902L825.744 434.788L823.145 433.032L820.482 431.277L821.456 428.48C823.21 423.408 825.679 421.912 829.708 423.408ZM842.767 425.033C842.377 426.074 839.388 427.505 838.609 427.049C838.349 426.919 837.959 426.139 837.764 425.424C837.439 424.253 837.764 424.123 840.298 424.123C842.377 424.123 843.027 424.318 842.767 425.033ZM818.467 438.04C818.467 438.235 818.208 438.56 817.818 438.755C817.493 438.95 817.168 438.82 817.168 438.495C817.168 438.105 817.493 437.78 817.818 437.78C818.208 437.78 818.467 437.91 818.467 438.04Z" fill="url(#paint51_linear_58_713)"/>
<path d="M126.028 566.616C125.989 567.773 126.602 570.58 127.392 572.773L128.849 576.8L124.73 582.505C119.958 589.188 119.269 590.816 120.284 592.943C121.472 595.471 123.401 595.905 130.229 595.365C133.751 595.017 136.981 595.016 137.329 595.309C137.677 595.602 139.465 598.125 141.268 600.83C143.079 603.627 145.092 606.084 145.707 606.262C147.328 606.861 148.377 604.603 149.663 597.618C150.259 594.384 150.929 591.467 151.138 591.218C151.389 590.92 153.382 589.964 155.558 588.993C160.178 586.936 161.749 585.371 161.794 582.692C161.834 581.027 161.304 580.242 158.245 577.414L154.63 574.034L155.282 569.318C155.99 563.122 155.869 560.134 154.561 558.355C152.575 555.665 148.289 557.324 143.932 562.404C141.381 565.437 139.38 566.301 137.452 565.359C134.753 564.022 130.405 562.827 128.714 563.018C126.699 563.191 126.122 563.978 126.028 566.616ZM134.168 570.577C134.566 570.912 134.572 571.511 134.238 571.909C133.527 572.754 133.385 572.72 132.667 571.351C132.064 570.25 133.073 569.656 134.168 570.577ZM132.065 584.09C132.712 584.634 134.296 588.004 134.045 588.302C133.543 588.899 128.629 589.69 128.131 589.271C127.883 589.062 128.052 588.355 128.496 587.625C129.225 586.455 131.816 583.88 132.065 584.09ZM139.917 575.158C141.502 574.284 142.259 574.496 145.705 576.46C147.648 577.585 147.706 577.719 146.933 581.568L146.076 585.517L143.059 586.375L140.001 587.284L138.488 584.738C135.735 580.13 136.18 577.278 139.917 575.158ZM149.568 566.21C150.113 567.179 149.284 570.387 148.434 570.69C148.167 570.806 147.319 570.602 146.646 570.29C145.541 569.785 145.651 569.453 147.282 567.514C148.62 565.923 149.188 565.551 149.568 566.21ZM143.88 593.179C144.029 593.304 144.111 593.712 144.009 594.136C143.949 594.51 143.641 594.675 143.392 594.466C143.093 594.215 143.054 593.757 143.263 593.508C143.514 593.21 143.78 593.095 143.88 593.179Z" fill="url(#paint52_linear_58_713)"/>
<path d="M211.623 242.791C211.585 243.948 212.198 246.756 212.988 248.948L214.445 252.975L210.326 258.68C205.554 265.363 204.865 266.991 205.88 269.118C207.068 271.646 208.997 272.08 215.825 271.54C219.347 271.192 222.577 271.192 222.925 271.485C223.273 271.778 225.061 274.3 226.864 277.005C228.675 279.802 230.688 282.259 231.303 282.437C232.924 283.036 233.973 280.778 235.259 273.794C235.855 270.559 236.525 267.642 236.734 267.393C236.985 267.095 238.978 266.14 241.154 265.169C245.774 263.111 247.345 261.546 247.39 258.867C247.43 257.203 246.9 256.418 243.841 253.589L240.226 250.209L240.878 245.494C241.586 239.297 241.465 236.309 240.157 234.53C238.171 231.84 233.885 233.5 229.528 238.579C226.977 241.612 224.976 242.476 223.048 241.534C220.349 240.197 216.001 239.002 214.31 239.193C212.295 239.366 211.718 240.154 211.623 242.791ZM219.764 246.752C220.162 247.087 220.168 247.686 219.834 248.084C219.123 248.929 218.981 248.895 218.263 247.527C217.66 246.425 218.669 245.831 219.764 246.752ZM217.661 260.265C218.308 260.809 219.892 264.179 219.641 264.477C219.139 265.074 214.225 265.865 213.727 265.446C213.479 265.237 213.648 264.53 214.092 263.8C214.821 262.631 217.412 260.056 217.661 260.265ZM225.513 251.333C227.098 250.459 227.855 250.671 231.301 252.636C233.244 253.761 233.302 253.894 232.529 257.743L231.672 261.692L228.655 262.551L225.597 263.459L224.084 260.913C221.331 256.305 221.776 253.453 225.513 251.333ZM235.164 242.386C235.709 243.354 234.88 246.562 234.03 246.866C233.763 246.981 232.915 246.777 232.242 246.466C231.137 245.961 231.247 245.628 232.878 243.689C234.216 242.098 234.784 241.726 235.164 242.386ZM229.476 269.354C229.625 269.479 229.707 269.888 229.605 270.312C229.545 270.686 229.237 270.851 228.988 270.641C228.689 270.39 228.649 269.932 228.859 269.684C229.11 269.385 229.376 269.27 229.476 269.354Z" fill="url(#paint53_linear_58_713)"/>
<path d="M74.2558 610.969C72.8948 611.088 70.5625 611.956 69.0515 612.852C66.7434 614.215 66.0766 615.077 64.5579 618.606C63.0236 621.99 62.8144 623.3 63.0292 626.64L63.3448 630.643L58.381 631.504C52.0491 632.691 44.0869 632.855 35.9317 632.046C30.6446 631.539 28.0343 630.916 21.251 628.466C16.7439 626.792 12.4266 624.981 11.6419 624.481C10.8797 623.921 9.76079 623.574 9.16032 623.698C8.16475 623.953 8.11947 624.075 8.70746 624.917C10.3949 627.279 14.1883 629.381 21.6415 632.08C28.2803 634.546 30.6853 635.162 36.8321 635.78C45.0255 636.672 52.8051 636.44 60.209 635.166C65.2946 634.35 65.2946 634.35 66.3262 636.051C68.0378 638.907 73.5374 644.626 77.5464 647.641C84.8177 653.256 92.7668 656.486 108.855 660.38L112.037 661.146L112.686 664.994C114.472 675.301 125.381 686.983 137.379 691.44C145.967 694.63 158.351 695.622 171.048 694.094C178.149 693.263 182.671 692.098 183.078 691.001C183.441 690.025 182.026 689.916 172.984 690.373C156.757 691.145 149.484 690.386 140.348 686.993C130.116 683.192 123.087 677.113 119.222 668.67C116.008 661.649 116.205 661.306 123.156 661.252C140.184 661.125 153.355 652.905 151.2 643.78C149.837 637.932 144.179 635.067 135.457 635.782C129.542 636.221 122.903 639.167 118.822 643.062C116.486 645.247 115.313 647.1 113.597 650.972L111.33 655.957L106.939 655.09C104.55 654.619 99.4421 653.068 95.5441 651.621C84.8246 647.639 77.2277 642.528 72.2278 636.023L70.0062 633.047L74.0009 631.062C78.5805 628.809 82.9344 624.738 84.0666 621.689C85.0629 619.007 84.314 615.052 82.5375 613.49C80.5627 611.716 77.0005 610.671 74.2558 610.969ZM80.3919 618.521C80.3927 621.504 76.7228 625.414 71.9832 627.538C68.77 628.911 68.2063 628.563 67.7861 625.216C67.3347 621.58 69.7638 617.279 72.9316 616.027C76.411 614.684 80.3543 616.009 80.3919 618.521ZM146.226 643.736C146.784 644.845 147.047 646.192 146.843 646.74C145.507 650.337 137.914 654.732 131.255 655.866C127.614 656.525 118.846 656.807 117.628 656.354C117.263 656.219 117.608 654.543 118.332 652.592C120.755 646.069 127.89 641.227 136.307 640.399C141.835 639.885 144.986 640.917 146.226 643.736Z" fill="url(#paint54_linear_58_713)"/>
<path d="M956.225 338.051C946.04 333.983 930.931 335.484 919.822 341.647C915.905 343.868 914.993 343.972 911.346 342.191C906.621 339.934 896.476 338.208 892.238 339.029C888.289 339.767 886.051 344.019 887.657 347.719C889.004 350.786 896.06 358.734 901.355 363.261C903.707 365.177 904.629 367.032 904.929 371.106C907.559 398.451 931.95 416.268 957.37 409.382C965.681 407.159 965.826 407.117 974.084 410.482C987.7 415.844 996.581 414.793 997.172 407.795C997.504 403.462 992.81 397.193 986.334 393.474C981.35 390.585 980.987 390.139 981.765 387.641C986.346 372.358 981.001 354.738 969.022 345.767C966.991 344.151 964.494 342.276 963.52 341.613C962.598 340.857 959.324 339.283 956.225 338.051ZM969.125 353.273C973.819 358.443 977.953 370.994 977.434 378.521C977.144 381.9 976.003 386.151 974.656 388.577C971.858 393.617 967.153 398.575 964.997 398.721C962.894 398.774 945.299 388.272 930.555 378.131C909.976 363.775 910.152 364.117 914.868 355.624C921.293 344.052 934.837 337.897 947.075 340.907C954.401 342.655 964.794 348.548 969.125 353.273ZM909.79 353.781C906.888 359.008 906.495 359.277 904.629 358.242C902.112 356.844 895.895 350.461 893.833 347.363C893.118 346.233 892.983 344.938 893.667 344.585C895.626 343.475 906.744 344.764 909.915 346.525L912.899 348.182L909.79 353.781ZM989.152 403.342C990.602 405.124 991.286 406.969 990.737 407.519C988.996 409.116 983.442 408.352 977.214 405.504L971.401 403.009L973.463 400.614C978.231 395.324 978.085 395.366 982.469 397.799C984.8 399.094 987.794 401.611 989.152 403.342ZM937.559 389.468C948.097 396.418 956.863 402.385 956.987 402.82C957.412 404.033 950.645 404.793 943.93 404.361C934.552 403.672 924.253 397.831 918.388 389.935C914.513 384.609 910.462 374.545 911.499 372.678C911.758 372.212 913.395 372.999 915.198 374.366C916.907 375.682 927.021 382.518 937.559 389.468Z" fill="url(#paint55_linear_58_713)"/>
<path d="M148.655 406.827C145.926 407.998 142.612 411.965 142.158 414.631C140.858 421.264 147.745 428.158 157.296 429.979C161.909 430.824 164.963 430.174 167.562 427.703C169.446 425.882 169.771 425.166 169.771 422.565C169.771 416.842 165.807 412.485 160.09 411.9C153.593 411.314 150.864 414.826 153.593 420.419C155.997 425.361 158.79 425.231 157.426 420.289C157.036 418.793 156.906 417.297 157.101 416.972C158.271 415.086 164.118 417.688 165.223 420.614C166.132 422.89 166.067 423.28 164.573 424.776C160.739 428.613 147.875 423.801 146.121 417.818C145.471 415.737 147.29 411.965 149.759 410.469C151.514 409.363 152.878 409.168 157.621 409.233C160.739 409.298 163.468 409.168 163.663 408.973C165.937 406.697 153.073 404.876 148.655 406.827Z" fill="url(#paint56_linear_58_713)"/>
<path d="M751.655 437.827C748.926 438.998 745.612 442.965 745.158 445.631C743.858 452.264 750.745 459.158 760.296 460.979C764.909 461.824 767.963 461.174 770.562 458.703C772.446 456.882 772.771 456.166 772.771 453.565C772.771 447.842 768.807 443.485 763.09 442.9C756.593 442.314 753.864 445.826 756.593 451.419C758.997 456.361 761.79 456.231 760.426 451.289C760.036 449.793 759.906 448.297 760.101 447.972C761.271 446.086 767.118 448.688 768.223 451.614C769.132 453.89 769.067 454.28 767.573 455.776C763.739 459.613 750.875 454.801 749.121 448.818C748.471 446.737 750.29 442.965 752.759 441.469C754.514 440.363 755.878 440.168 760.621 440.233C763.739 440.298 766.468 440.168 766.663 439.973C768.937 437.697 756.073 435.876 751.655 437.827Z" fill="url(#paint57_linear_58_713)"/>
<path d="M853.655 566.827C850.926 567.998 847.612 571.965 847.158 574.631C845.858 581.264 852.745 588.158 862.296 589.979C866.909 590.824 869.963 590.174 872.562 587.703C874.446 585.882 874.771 585.166 874.771 582.565C874.771 576.842 870.807 572.485 865.09 571.9C858.593 571.314 855.864 574.826 858.593 580.419C860.997 585.361 863.79 585.231 862.426 580.289C862.036 578.793 861.906 577.297 862.101 576.972C863.271 575.086 869.118 577.688 870.223 580.614C871.132 582.89 871.067 583.28 869.573 584.776C865.739 588.613 852.875 583.801 851.121 577.818C850.471 575.737 852.29 571.965 854.759 570.469C856.514 569.363 857.878 569.168 862.621 569.233C865.739 569.298 868.468 569.168 868.663 568.973C870.937 566.697 858.073 564.876 853.655 566.827Z" fill="url(#paint58_linear_58_713)"/>
<path d="M41.1993 512.427C43.7727 513.529 44.0951 512.012 41.9824 508.704C39.2266 504.384 39.1376 498.133 41.8057 493.352C43.8758 489.536 43.1871 488.02 40.1067 489.722C36.5206 491.838 34.4502 496.297 34.7236 501.353C35.0888 506.776 37.477 510.82 41.1993 512.427Z" fill="url(#paint59_linear_58_713)"/>
<path d="M63.3044 519.817C68.2674 522.205 72.1279 523.03 77.8274 522.936C84.3543 522.841 90.0543 521.643 95.8928 519.112C98.4673 518.008 100.72 517.042 100.904 517.041C101.042 516.995 101.271 518.696 101.408 520.856C101.818 526.969 105.539 532.529 109.859 533.446C114.685 534.409 122.04 532.108 129.488 527.324C132.017 525.714 134.73 524.288 135.419 524.242C136.154 524.149 141.486 524.882 147.231 525.845C158.123 527.632 162.122 527.768 163.64 526.251C164.743 525.147 163.778 524.182 160.332 523.035C158.861 522.576 155.691 520.693 153.301 518.855C151.004 517.018 146.915 514.216 144.249 512.563C135.565 507.189 134.049 506.041 133.911 504.708C133.866 504.018 134.281 501.031 134.88 498.043C136.63 489.125 135.117 482.277 130.477 477.545C126.618 473.686 120.459 472.77 113.38 475.071L111.035 475.762L111.358 472.59C112.05 466.752 111.549 458.617 110.309 454.986C108.703 450.345 105.257 446.623 101.719 445.66C97.6283 444.605 92.1577 446.767 86.8696 451.596L82.5013 455.505L81.353 453.805C71.1101 438.872 59.0254 430.926 47.3964 431.528C43.4894 431.76 38.4325 433.693 36.3172 435.808C34.3399 437.786 32.2691 442.889 32.0836 446.474C31.4357 455.851 38.6477 464.994 53.5817 473.766C56.7983 475.695 59.6011 477.578 59.7848 478.038C60.0144 478.451 58.6346 480.474 56.1052 483.371C49.7589 490.636 48.2864 494.222 49.2026 500.749C50.2561 508.516 56.0897 516.465 63.3044 519.817ZM53.6591 504.837C50.6749 497.439 51.918 492.979 59.0002 484.887C65.6225 477.346 65.4388 476.886 54.5026 470.272C49.8157 467.425 47.1048 465.358 43.2457 461.499C38.6514 456.996 38.0084 456.077 36.769 452.631C32.408 440.728 42.4321 432.082 55.2997 436.765C62.8824 439.473 69.4526 444.939 76.2509 454.129C79.7419 458.816 80.3391 459.413 81.9017 459.78C83.9239 460.147 83.5561 460.423 89.1202 455.042C101.72 442.81 110.036 450.574 107.452 472.27C106.99 476.223 106.942 479.762 107.264 480.084C108.137 480.957 109.7 480.68 112.734 479.208C118.159 476.632 124.686 476.996 127.856 480.166C131.439 483.75 132.539 491.563 130.604 500.297C129.729 504.112 130.187 506.686 132.025 508.524C132.576 509.075 136.436 511.739 140.572 514.403C150.864 521.109 152.748 522.441 152.196 522.993C151.92 523.269 148.152 522.811 143.785 521.939C139.419 521.16 135.145 520.657 134.317 520.841C133.444 521.071 131.053 522.359 128.984 523.693C121.582 528.523 113.951 531.1 110.182 529.999C106.552 528.851 103.751 522.004 104.857 516.764C105.548 513.776 104.813 511.846 103.112 511.892C102.423 511.939 99.9865 512.997 97.6418 514.147C86.0562 520.22 72.5426 520.778 63.1685 515.634C59.6302 513.659 55.1282 508.606 53.6591 504.837Z" fill="url(#paint60_linear_58_713)"/>
<path d="M83.5221 533.413C84.6252 533.32 87.2453 532.905 89.3139 532.399L93.1293 531.524L94.6906 534.649C96.2977 538.003 98.0437 539.473 99.0553 538.462C99.3772 538.14 99.4236 537.174 99.1483 536.255C98.8729 535.428 98.2766 532.9 97.9099 530.694C96.7634 525.041 95.9362 524.858 87.4312 528.585C83.6155 530.195 80.5352 531.714 80.5351 531.989C80.5346 533.001 81.6835 533.506 83.5221 533.413Z" fill="url(#paint61_linear_58_713)"/>
<path d="M138.769 536.237C143.457 536.051 149.479 535.266 150.95 534.622C152.559 533.84 151.962 532.599 149.894 532.463C147.09 532.326 135.323 533.894 134.771 534.446C133.575 535.642 135.229 536.376 138.769 536.237Z" fill="url(#paint62_linear_58_713)"/>
<path d="M153.258 512.375C159.692 515.405 162.403 515.726 161.118 513.244C160.521 512.095 151.146 507.412 149.032 507.229C145.861 506.908 148.387 509.987 153.258 512.375Z" fill="url(#paint63_linear_58_713)"/>
<path d="M90.7357 440.747C91.1953 440.839 92.8042 440.516 94.3672 440.056C97.9069 438.905 100.527 438.95 104.295 440.419C108.293 441.934 112.566 446.115 114.448 450.48C115.78 453.467 115.918 453.697 116.929 453.237C118.4 452.593 117.897 448.043 116.014 444.688C113.075 439.45 105.585 434.811 100.207 434.951C96.8056 435.045 92.5303 436.564 90.6449 438.449C89.1734 439.921 89.1731 440.472 90.7357 440.747Z" fill="url(#paint64_linear_58_713)"/>
<path d="M456.45 2.41561C453.41 3.947 449.844 7.74445 448.696 10.7614C446.854 15.6169 445.989 23.7155 446.99 27.8894C447.884 31.6205 447.566 31.9644 444.038 31.7402C437.139 31.388 430.995 34.4659 429.913 38.8716C429.094 42.1442 430.486 46.5585 433.539 50.3741C436.39 53.9039 442.308 57.9687 445.799 58.8707C448.283 59.4789 448.437 59.8432 446.918 62.1467C445.063 64.999 445.328 66.9417 448.164 70.4081C451.904 74.8615 456.999 77.7195 464.922 79.8325C476.099 82.7034 486.678 82.2403 490.227 78.6477C491.483 77.4772 494.576 70.3155 495.413 66.8381C495.446 66.6964 496.72 66.9929 498.276 67.3553C500.336 67.8647 501.724 67.7996 503.685 67.0619C513.412 63.3254 526.082 43.4354 527.313 29.8989C527.733 25.5183 525.916 17.6613 523.876 15.0071C520.467 10.5413 514.367 9.06134 510.166 11.6065C507.361 13.2821 504.975 15.5929 502.309 19.2415C501.144 20.7915 500.044 22.0582 499.792 22.1187C499.539 22.1793 498.639 20.6563 497.712 18.7386C494.7 12.3051 489.655 9.10064 484.351 10.1049C481.492 10.7233 481.336 10.6271 479.281 7.90964C477.133 5.08086 472.48 2.11687 468.849 1.18189C467.151 0.786536 459.68 0.838771 458.715 1.27085C458.54 1.37953 457.512 1.82675 456.45 2.41561ZM465.457 6.54255C469.235 6.97426 472.67 8.75902 475.119 11.4488L477.239 13.883L475.629 17.479C473.599 22.1118 473.129 25.1671 473.715 29.8416C474.203 33.269 474.041 33.7091 472.194 35.757C468.946 39.2106 467.452 48.8644 469.011 55.6463C469.315 56.9111 469.398 58.0949 469.254 58.33C469.125 58.6285 467.063 58.3872 464.672 57.8904C462.281 57.3935 458.738 57.1061 456.752 57.1811C450.287 57.5272 443.087 53.9702 438.116 48.0062C435.498 44.8889 434.533 41.9772 435.42 39.8251C436.37 37.6579 441.675 36.6536 446.929 37.6678C451.286 38.5626 453.763 38.3032 454.248 36.9831C454.41 36.5431 453.965 33.5734 453.255 30.333C451.236 20.5183 452.763 12.3947 457.335 8.89113C460.082 6.69438 461.899 6.19187 465.457 6.54255ZM487.206 14.7703C490.257 15.5103 492.87 19.1638 494.656 25.2224C497.269 33.8917 499.003 33.8773 504.871 24.9135C509.668 17.6109 512.845 14.9768 516.118 15.5297C518.824 15.9508 520.55 18.4126 521.779 23.5351C522.916 28.2781 522.008 34.247 519.092 41.0319C515.288 49.9688 505.944 61.4377 501.585 62.4828C499.563 62.9675 496.068 62.6017 495.901 61.9061C495.919 61.7012 495.843 59.7131 495.848 57.505C495.881 52.3477 494.047 44.6956 491.891 40.9992C489.379 36.6526 485.702 33.856 481.203 32.9283C477.476 32.15 477.319 32.0539 477.228 30.0025C477.067 25.4269 478.755 20.2071 481.462 17.2844C484.376 14.1114 484.502 14.0811 487.206 14.7703ZM483.708 39.751C486.447 41.7024 488.618 45.462 489.816 50.458C491.526 57.8723 490.313 69.532 487.073 75.5251L485.501 78.4432L480.507 78.2361C470.456 77.8369 460.057 74.3113 454.194 69.3638C451.004 66.6508 450.661 64.6601 453.132 63.265C455.842 61.7461 458.867 61.8234 465.738 63.4529C472.248 64.9684 473.982 64.954 474.801 63.3533C475.059 62.7565 474.869 59.4582 474.415 55.8891C473.447 48.2298 473.71 43.7529 475.3 40.6299C476.28 38.5892 476.74 38.2783 478.775 38.1249C480.4 37.936 481.939 38.5033 483.708 39.751Z" fill="url(#paint65_linear_58_713)"/>
<defs>
<linearGradient id="paint0_linear_58_713" x1="618.928" y1="38.579" x2="611.99" y2="193.193" gradientUnits="userSpaceOnUse">
<stop stop-color="#42307D"/>
<stop offset="1" stop-color="#7F56D9"/>
</linearGradient>
<linearGradient id="paint1_linear_58_713" x1="633.152" y1="157.072" x2="641.142" y2="175.021" gradientUnits="userSpaceOnUse">
<stop stop-color="#42307D"/>
<stop offset="1" stop-color="#7F56D9"/>
</linearGradient>
<linearGradient id="paint2_linear_58_713" x1="661.921" y1="178.367" x2="670.081" y2="192.848" gradientUnits="userSpaceOnUse">
<stop stop-color="#42307D"/>
<stop offset="1" stop-color="#7F56D9"/>
</linearGradient>
<linearGradient id="paint3_linear_58_713" x1="593.535" y1="139.946" x2="599.936" y2="154.55" gradientUnits="userSpaceOnUse">
<stop stop-color="#42307D"/>
<stop offset="1" stop-color="#7F56D9"/>
</linearGradient>
<linearGradient id="paint4_linear_58_713" x1="623.439" y1="184.446" x2="630.726" y2="203.171" gradientUnits="userSpaceOnUse">
<stop stop-color="#42307D"/>
<stop offset="1" stop-color="#7F56D9"/>
</linearGradient>
<linearGradient id="paint5_linear_58_713" x1="588.373" y1="167.217" x2="593.224" y2="178.369" gradientUnits="userSpaceOnUse">
<stop stop-color="#42307D"/>
<stop offset="1" stop-color="#7F56D9"/>
</linearGradient>
<linearGradient id="paint6_linear_58_713" x1="293.675" y1="117" x2="360.038" y2="237.495" gradientUnits="userSpaceOnUse">
<stop stop-color="#42307D"/>
<stop offset="1" stop-color="#7F56D9"/>
</linearGradient>
<linearGradient id="paint7_linear_58_713" x1="315.745" y1="139.207" x2="384.968" y2="251.947" gradientUnits="userSpaceOnUse">
<stop stop-color="#42307D"/>
<stop offset="1" stop-color="#7F56D9"/>
</linearGradient>
<linearGradient id="paint8_linear_58_713" x1="284" y1="170.229" x2="307.215" y2="183.761" gradientUnits="userSpaceOnUse">
<stop stop-color="#42307D"/>
<stop offset="1" stop-color="#7F56D9"/>
</linearGradient>
<linearGradient id="paint9_linear_58_713" x1="452.934" y1="184.626" x2="468.779" y2="190.609" gradientUnits="userSpaceOnUse">
<stop stop-color="#42307D"/>
<stop offset="1" stop-color="#7F56D9"/>
</linearGradient>
<linearGradient id="paint10_linear_58_713" x1="610.998" y1="254.737" x2="755.899" y2="385.902" gradientUnits="userSpaceOnUse">
<stop stop-color="#42307D"/>
<stop offset="1" stop-color="#7F56D9"/>
</linearGradient>
<linearGradient id="paint11_linear_58_713" x1="650.059" y1="280.085" x2="675.404" y2="284.457" gradientUnits="userSpaceOnUse">
<stop stop-color="#42307D"/>
<stop offset="1" stop-color="#7F56D9"/>
</linearGradient>
<linearGradient id="paint12_linear_58_713" x1="706.873" y1="305.35" x2="756.824" y2="337.621" gradientUnits="userSpaceOnUse">
<stop stop-color="#42307D"/>
<stop offset="1" stop-color="#7F56D9"/>
</linearGradient>
<linearGradient id="paint13_linear_58_713" x1="635.085" y1="354.729" x2="643.067" y2="361.514" gradientUnits="userSpaceOnUse">
<stop stop-color="#42307D"/>
<stop offset="1" stop-color="#7F56D9"/>
</linearGradient>
<linearGradient id="paint14_linear_58_713" x1="680.262" y1="365.579" x2="686.513" y2="376.158" gradientUnits="userSpaceOnUse">
<stop stop-color="#42307D"/>
<stop offset="1" stop-color="#7F56D9"/>
</linearGradient>
<linearGradient id="paint15_linear_58_713" x1="181.442" y1="347.822" x2="348.556" y2="312.848" gradientUnits="userSpaceOnUse">
<stop stop-color="#42307D"/>
<stop offset="1" stop-color="#7F56D9"/>
</linearGradient>
<linearGradient id="paint16_linear_58_713" x1="367.943" y1="557.677" x2="367.528" y2="563.917" gradientUnits="userSpaceOnUse">
<stop stop-color="#42307D"/>
<stop offset="1" stop-color="#7F56D9"/>
</linearGradient>
<linearGradient id="paint17_linear_58_713" x1="291.741" y1="510.158" x2="300.16" y2="546.984" gradientUnits="userSpaceOnUse">
<stop stop-color="#42307D"/>
<stop offset="1" stop-color="#7F56D9"/>
</linearGradient>
<linearGradient id="paint18_linear_58_713" x1="339.433" y1="544.898" x2="338.274" y2="550.888" gradientUnits="userSpaceOnUse">
<stop stop-color="#42307D"/>
<stop offset="1" stop-color="#7F56D9"/>
</linearGradient>
<linearGradient id="paint19_linear_58_713" x1="325.081" y1="538.129" x2="323.482" y2="545.218" gradientUnits="userSpaceOnUse">
<stop stop-color="#42307D"/>
<stop offset="1" stop-color="#7F56D9"/>
</linearGradient>
<linearGradient id="paint20_linear_58_713" x1="308.122" y1="531.002" x2="306.34" y2="538.692" gradientUnits="userSpaceOnUse">
<stop stop-color="#42307D"/>
<stop offset="1" stop-color="#7F56D9"/>
</linearGradient>
<linearGradient id="paint21_linear_58_713" x1="303.081" y1="540.433" x2="301.877" y2="547.968" gradientUnits="userSpaceOnUse">
<stop stop-color="#42307D"/>
<stop offset="1" stop-color="#7F56D9"/>
</linearGradient>
<linearGradient id="paint22_linear_58_713" x1="188.615" y1="461.162" x2="194.968" y2="496.224" gradientUnits="userSpaceOnUse">
<stop stop-color="#42307D"/>
<stop offset="1" stop-color="#7F56D9"/>
</linearGradient>
<linearGradient id="paint23_linear_58_713" x1="271.193" y1="518.732" x2="269.683" y2="523.442" gradientUnits="userSpaceOnUse">
<stop stop-color="#42307D"/>
<stop offset="1" stop-color="#7F56D9"/>
</linearGradient>
<linearGradient id="paint24_linear_58_713" x1="257.519" y1="511.167" x2="255.906" y2="516.494" gradientUnits="userSpaceOnUse">
<stop stop-color="#42307D"/>
<stop offset="1" stop-color="#7F56D9"/>
</linearGradient>
<linearGradient id="paint25_linear_58_713" x1="323.058" y1="556.96" x2="328.199" y2="591.936" gradientUnits="userSpaceOnUse">
<stop stop-color="#42307D"/>
<stop offset="1" stop-color="#7F56D9"/>
</linearGradient>
<linearGradient id="paint26_linear_58_713" x1="240.39" y1="500.55" x2="239.036" y2="505.397" gradientUnits="userSpaceOnUse">
<stop stop-color="#42307D"/>
<stop offset="1" stop-color="#7F56D9"/>
</linearGradient>
<linearGradient id="paint27_linear_58_713" x1="224.146" y1="490.716" x2="222.535" y2="495.397" gradientUnits="userSpaceOnUse">
<stop stop-color="#42307D"/>
<stop offset="1" stop-color="#7F56D9"/>
</linearGradient>
<linearGradient id="paint28_linear_58_713" x1="280.325" y1="530.647" x2="281.993" y2="537.235" gradientUnits="userSpaceOnUse">
<stop stop-color="#42307D"/>
<stop offset="1" stop-color="#7F56D9"/>
</linearGradient>
<linearGradient id="paint29_linear_58_713" x1="311.892" y1="553.443" x2="311.534" y2="561.549" gradientUnits="userSpaceOnUse">
<stop stop-color="#42307D"/>
<stop offset="1" stop-color="#7F56D9"/>
</linearGradient>
<linearGradient id="paint30_linear_58_713" x1="208.868" y1="482.526" x2="207.485" y2="488.071" gradientUnits="userSpaceOnUse">
<stop stop-color="#42307D"/>
<stop offset="1" stop-color="#7F56D9"/>
</linearGradient>
<linearGradient id="paint31_linear_58_713" x1="269.436" y1="532.646" x2="272.474" y2="542.364" gradientUnits="userSpaceOnUse">
<stop stop-color="#42307D"/>
<stop offset="1" stop-color="#7F56D9"/>
</linearGradient>
<linearGradient id="paint32_linear_58_713" x1="200.444" y1="494.044" x2="200.651" y2="500.01" gradientUnits="userSpaceOnUse">
<stop stop-color="#42307D"/>
<stop offset="1" stop-color="#7F56D9"/>
</linearGradient>
<linearGradient id="paint33_linear_58_713" x1="307.606" y1="568.731" x2="307.27" y2="574.088" gradientUnits="userSpaceOnUse">
<stop stop-color="#42307D"/>
<stop offset="1" stop-color="#7F56D9"/>
</linearGradient>
<linearGradient id="paint34_linear_58_713" x1="296.869" y1="565.996" x2="296.542" y2="573.597" gradientUnits="userSpaceOnUse">
<stop stop-color="#42307D"/>
<stop offset="1" stop-color="#7F56D9"/>
</linearGradient>
<linearGradient id="paint35_linear_58_713" x1="204.65" y1="504.403" x2="206.023" y2="512.155" gradientUnits="userSpaceOnUse">
<stop stop-color="#42307D"/>
<stop offset="1" stop-color="#7F56D9"/>
</linearGradient>
<linearGradient id="paint36_linear_58_713" x1="250.451" y1="538.25" x2="252.54" y2="548.367" gradientUnits="userSpaceOnUse">
<stop stop-color="#42307D"/>
<stop offset="1" stop-color="#7F56D9"/>
</linearGradient>
<linearGradient id="paint37_linear_58_713" x1="207.149" y1="518.513" x2="208.055" y2="526.186" gradientUnits="userSpaceOnUse">
<stop stop-color="#42307D"/>
<stop offset="1" stop-color="#7F56D9"/>
</linearGradient>
<linearGradient id="paint38_linear_58_713" x1="262.606" y1="557.161" x2="261.297" y2="566.303" gradientUnits="userSpaceOnUse">
<stop stop-color="#42307D"/>
<stop offset="1" stop-color="#7F56D9"/>
</linearGradient>
<linearGradient id="paint39_linear_58_713" x1="235.106" y1="542.389" x2="238.234" y2="552.412" gradientUnits="userSpaceOnUse">
<stop stop-color="#42307D"/>
<stop offset="1" stop-color="#7F56D9"/>
</linearGradient>
<linearGradient id="paint40_linear_58_713" x1="246.483" y1="552.311" x2="245.059" y2="562.24" gradientUnits="userSpaceOnUse">
<stop stop-color="#42307D"/>
<stop offset="1" stop-color="#7F56D9"/>
</linearGradient>
<linearGradient id="paint41_linear_58_713" x1="210.554" y1="531.989" x2="216.834" y2="567.521" gradientUnits="userSpaceOnUse">
<stop stop-color="#42307D"/>
<stop offset="1" stop-color="#7F56D9"/>
</linearGradient>
<linearGradient id="paint42_linear_58_713" x1="230.954" y1="549.397" x2="229.823" y2="556.547" gradientUnits="userSpaceOnUse">
<stop stop-color="#42307D"/>
<stop offset="1" stop-color="#7F56D9"/>
</linearGradient>
<linearGradient id="paint43_linear_58_713" x1="738.999" y1="618.763" x2="919.933" y2="619.199" gradientUnits="userSpaceOnUse">
<stop stop-color="#42307D"/>
<stop offset="1" stop-color="#7F56D9"/>
</linearGradient>
<linearGradient id="paint44_linear_58_713" x1="839.581" y1="641.3" x2="873.457" y2="652.624" gradientUnits="userSpaceOnUse">
<stop stop-color="#42307D"/>
<stop offset="1" stop-color="#7F56D9"/>
</linearGradient>
<linearGradient id="paint45_linear_58_713" x1="908.685" y1="579.688" x2="1004.44" y2="588.668" gradientUnits="userSpaceOnUse">
<stop stop-color="#42307D"/>
<stop offset="1" stop-color="#7F56D9"/>
</linearGradient>
<linearGradient id="paint46_linear_58_713" x1="275.811" y1="577.999" x2="237.174" y2="699.574" gradientUnits="userSpaceOnUse">
<stop stop-color="#42307D"/>
<stop offset="1" stop-color="#7F56D9"/>
</linearGradient>
<linearGradient id="paint47_linear_58_713" x1="758.691" y1="321.494" x2="803.43" y2="306.585" gradientUnits="userSpaceOnUse">
<stop stop-color="#42307D"/>
<stop offset="1" stop-color="#7F56D9"/>
</linearGradient>
<linearGradient id="paint48_linear_58_713" x1="668.395" y1="465.291" x2="745.094" y2="489.446" gradientUnits="userSpaceOnUse">
<stop stop-color="#42307D"/>
<stop offset="1" stop-color="#7F56D9"/>
</linearGradient>
<linearGradient id="paint49_linear_58_713" x1="324.207" y1="374.632" x2="427.533" y2="307.765" gradientUnits="userSpaceOnUse">
<stop stop-color="#42307D"/>
<stop offset="1" stop-color="#7F56D9"/>
</linearGradient>
<linearGradient id="paint50_linear_58_713" x1="779.111" y1="475" x2="823.08" y2="569.139" gradientUnits="userSpaceOnUse">
<stop stop-color="#42307D"/>
<stop offset="1" stop-color="#7F56D9"/>
</linearGradient>
<linearGradient id="paint51_linear_58_713" x1="802.999" y1="406" x2="845.294" y2="454.617" gradientUnits="userSpaceOnUse">
<stop stop-color="#42307D"/>
<stop offset="1" stop-color="#7F56D9"/>
</linearGradient>
<linearGradient id="paint52_linear_58_713" x1="109.404" y1="584.392" x2="173.834" y2="583.319" gradientUnits="userSpaceOnUse">
<stop stop-color="#42307D"/>
<stop offset="1" stop-color="#7F56D9"/>
</linearGradient>
<linearGradient id="paint53_linear_58_713" x1="195" y1="260.567" x2="259.43" y2="259.495" gradientUnits="userSpaceOnUse">
<stop stop-color="#42307D"/>
<stop offset="1" stop-color="#7F56D9"/>
</linearGradient>
<linearGradient id="paint54_linear_58_713" x1="20.9979" y1="589.999" x2="13.4776" y2="694.507" gradientUnits="userSpaceOnUse">
<stop stop-color="#42307D"/>
<stop offset="1" stop-color="#7F56D9"/>
</linearGradient>
<linearGradient id="paint55_linear_58_713" x1="906.006" y1="309.583" x2="908.224" y2="437.693" gradientUnits="userSpaceOnUse">
<stop stop-color="#42307D"/>
<stop offset="1" stop-color="#7F56D9"/>
</linearGradient>
<linearGradient id="paint56_linear_58_713" x1="142" y1="406" x2="166.118" y2="433.53" gradientUnits="userSpaceOnUse">
<stop stop-color="#42307D"/>
<stop offset="1" stop-color="#7F56D9"/>
</linearGradient>
<linearGradient id="paint57_linear_58_713" x1="745" y1="437" x2="769.118" y2="464.53" gradientUnits="userSpaceOnUse">
<stop stop-color="#42307D"/>
<stop offset="1" stop-color="#7F56D9"/>
</linearGradient>
<linearGradient id="paint58_linear_58_713" x1="847" y1="566" x2="871.118" y2="593.53" gradientUnits="userSpaceOnUse">
<stop stop-color="#42307D"/>
<stop offset="1" stop-color="#7F56D9"/>
</linearGradient>
<linearGradient id="paint59_linear_58_713" x1="41.8086" y1="513.935" x2="42.1724" y2="487.968" gradientUnits="userSpaceOnUse">
<stop stop-color="#42307D"/>
<stop offset="1" stop-color="#7F56D9"/>
</linearGradient>
<linearGradient id="paint60_linear_58_713" x1="115.73" y1="574.163" x2="157.905" y2="435.404" gradientUnits="userSpaceOnUse">
<stop stop-color="#42307D"/>
<stop offset="1" stop-color="#7F56D9"/>
</linearGradient>
<linearGradient id="paint61_linear_58_713" x1="92.7942" y1="544.723" x2="94.4351" y2="521.59" gradientUnits="userSpaceOnUse">
<stop stop-color="#42307D"/>
<stop offset="1" stop-color="#7F56D9"/>
</linearGradient>
<linearGradient id="paint62_linear_58_713" x1="142.388" y1="543.386" x2="140.906" y2="525.574" gradientUnits="userSpaceOnUse">
<stop stop-color="#42307D"/>
<stop offset="1" stop-color="#7F56D9"/>
</linearGradient>
<linearGradient id="paint63_linear_58_713" x1="157.621" y1="518.315" x2="161.916" y2="507.918" gradientUnits="userSpaceOnUse">
<stop stop-color="#42307D"/>
<stop offset="1" stop-color="#7F56D9"/>
</linearGradient>
<linearGradient id="paint64_linear_58_713" x1="109.795" y1="460.461" x2="117.58" y2="433.359" gradientUnits="userSpaceOnUse">
<stop stop-color="#42307D"/>
<stop offset="1" stop-color="#7F56D9"/>
</linearGradient>
<linearGradient id="paint65_linear_58_713" x1="421.999" y1="10.0577" x2="525.102" y2="85.6574" gradientUnits="userSpaceOnUse">
<stop stop-color="#42307D"/>
<stop offset="1" stop-color="#7F56D9"/>
</linearGradient>
</defs>
</svg>
