<svg width="770" height="25" viewBox="0 0 770 25" fill="none" xmlns="http://www.w3.org/2000/svg">
<path d="M15.3899 5.29084L16.7999 8.11084C16.9899 8.50084 17.4999 8.87084 17.9299 8.95084L20.4799 9.37084C22.1099 9.64084 22.4899 10.8208 21.3199 12.0008L19.3299 13.9908C18.9999 14.3208 18.8099 14.9708 18.9199 15.4408L19.4899 17.9008C19.9399 19.8408 18.8999 20.6008 17.1899 19.5808L14.7999 18.1608C14.3699 17.9008 13.6499 17.9008 13.2199 18.1608L10.8299 19.5808C9.11994 20.5908 8.07994 19.8408 8.52994 17.9008L9.09994 15.4408C9.18994 14.9608 8.99994 14.3108 8.66994 13.9808L6.67994 11.9908C5.50994 10.8208 5.88994 9.64084 7.51994 9.36084L10.0699 8.94084C10.4999 8.87084 11.0099 8.49084 11.1999 8.10084L12.6099 5.28084C13.3799 3.76084 14.6199 3.76084 15.3899 5.29084Z" fill="#292D32"/>
<path d="M8 5.83105H2C1.59 5.83105 1.25 5.49105 1.25 5.08105C1.25 4.67105 1.59 4.33105 2 4.33105H8C8.41 4.33105 8.75 4.67105 8.75 5.08105C8.75 5.49105 8.41 5.83105 8 5.83105Z" fill="#292D32"/>
<path d="M5 19.8311H2C1.59 19.8311 1.25 19.4911 1.25 19.0811C1.25 18.6711 1.59 18.3311 2 18.3311H5C5.41 18.3311 5.75 18.6711 5.75 19.0811C5.75 19.4911 5.41 19.8311 5 19.8311Z" fill="#292D32"/>
<path d="M3 12.8311H2C1.59 12.8311 1.25 12.4911 1.25 12.0811C1.25 11.6711 1.59 11.3311 2 11.3311H3C3.41 11.3311 3.75 11.6711 3.75 12.0811C3.75 12.4911 3.41 12.8311 3 12.8311Z" fill="#292D32"/>
<path d="M32.9141 13.7217V15.1045H31.4688V17.5811H30.0156V15.1045H24.8281L24.4766 13.917L29.8906 6.54199H31.4688V13.7217H32.9141ZM26.0938 13.7217H30.0156V8.39355L26.0938 13.7217ZM35.0569 17.6904C34.7652 17.6904 34.5204 17.5915 34.3225 17.3936C34.1298 17.1956 34.0334 16.9535 34.0334 16.667C34.0334 16.3805 34.1298 16.1383 34.3225 15.9404C34.5204 15.7425 34.7652 15.6436 35.0569 15.6436C35.3538 15.6436 35.6011 15.7425 35.7991 15.9404C35.997 16.1331 36.0959 16.3753 36.0959 16.667C36.0959 16.9587 35.997 17.2035 35.7991 17.4014C35.6011 17.5941 35.3538 17.6904 35.0569 17.6904ZM40.4497 6.34668C41.6997 6.34668 42.6997 6.7321 43.4497 7.50293C44.2049 8.26855 44.5825 9.31803 44.5825 10.6514C44.5825 11.5055 44.421 12.3337 44.0981 13.1357C43.7804 13.9378 43.3351 14.6592 42.7622 15.2998C42.1945 15.9404 41.4861 16.4821 40.6372 16.9248C39.7934 17.3623 38.8716 17.6462 37.8716 17.7764L37.6059 16.4092C38.9289 16.1956 40.0304 15.7217 40.9106 14.9873C41.796 14.2529 42.4054 13.3883 42.7388 12.3936C42.4054 12.7477 41.9888 13.0186 41.4888 13.2061C40.994 13.3936 40.4783 13.4873 39.9419 13.4873C38.9315 13.4873 38.0851 13.154 37.4028 12.4873C36.7257 11.8154 36.3872 10.9899 36.3872 10.0107C36.3872 8.95866 36.77 8.08626 37.5356 7.39355C38.3065 6.69564 39.2778 6.34668 40.4497 6.34668ZM40.3716 12.1436C40.6997 12.1436 41.02 12.1019 41.3325 12.0186C41.645 11.93 41.9315 11.805 42.1919 11.6436C42.4575 11.4821 42.671 11.266 42.8325 10.9951C42.994 10.7191 43.0747 10.4118 43.0747 10.0732C43.0747 9.39616 42.8325 8.84147 42.3481 8.40918C41.869 7.97689 41.2361 7.76074 40.4497 7.76074C39.7153 7.76074 39.1033 7.97168 38.6138 8.39355C38.1294 8.81543 37.8872 9.34928 37.8872 9.99512C37.8872 10.6097 38.1216 11.1227 38.5903 11.5342C39.0643 11.9404 39.658 12.1436 40.3716 12.1436ZM43.8034 19.9795L50.2019 5.58105H51.5925L45.1941 19.9795H43.8034ZM56.4072 10.5732C57.4801 10.5732 58.3759 10.9144 59.0947 11.5967C59.8186 12.279 60.1806 13.1279 60.1806 14.1436C60.1806 15.1852 59.7926 16.0524 59.0166 16.7451C58.2457 17.4326 57.2692 17.7764 56.0869 17.7764C55.3838 17.7764 54.6989 17.6357 54.0322 17.3545C53.3707 17.0732 52.7796 16.6644 52.2588 16.1279L53.0166 14.9717C53.3916 15.4092 53.8395 15.7503 54.3603 15.9951C54.8864 16.2399 55.4306 16.3623 55.9931 16.3623C56.7796 16.3623 57.4228 16.1488 57.9228 15.7217C58.428 15.2894 58.6806 14.7529 58.6806 14.1123C58.6806 13.4873 58.4463 12.9665 57.9775 12.5498C57.514 12.1279 56.9306 11.917 56.2275 11.917C55.8056 11.917 55.3994 11.9951 55.0088 12.1514C54.6233 12.3024 54.2952 12.5081 54.0244 12.7686L52.7431 12.3623L53.2822 6.54199H59.4306V7.91699H54.5009L54.1963 11.2139C54.8421 10.7868 55.5791 10.5732 56.4072 10.5732ZM73.7163 17.5811L72.6459 14.9092H67.2397L66.1694 17.5811H64.5991L69.0913 6.54199H70.8413L75.3334 17.5811H73.7163ZM67.7866 13.5498H72.1069L69.9428 8.12793L67.7866 13.5498ZM81.8512 9.4248H83.3903L79.8044 17.5811H78.3434L74.7653 9.4248H76.3434L79.1012 15.9326L81.8512 9.4248ZM92.0956 13.5029C92.0956 13.5811 92.0826 13.7842 92.0566 14.1123H85.0331C85.1738 14.8311 85.5149 15.4118 86.0566 15.8545C86.6034 16.292 87.2701 16.5107 88.0566 16.5107C88.6399 16.5107 89.1764 16.3883 89.6659 16.1436C90.1555 15.8936 90.5383 15.5732 90.8144 15.1826L91.7597 15.9951C91.3482 16.5472 90.8144 16.9821 90.1581 17.2998C89.5071 17.6175 88.7909 17.7764 88.0097 17.7764C86.7336 17.7764 85.6711 17.3649 84.8222 16.542C83.9732 15.7191 83.5488 14.6956 83.5488 13.4717C83.5488 12.68 83.7336 11.9613 84.1034 11.3154C84.4784 10.6644 84.9941 10.154 85.6503 9.78418C86.3066 9.41439 87.0357 9.22949 87.8378 9.22949C88.6347 9.22949 89.3586 9.41439 90.0097 9.78418C90.6607 10.154 91.1711 10.667 91.5409 11.3232C91.9107 11.9743 92.0956 12.7008 92.0956 13.5029ZM87.8222 10.4951C87.1139 10.4951 86.5019 10.7165 85.9863 11.1592C85.4706 11.5967 85.1477 12.1644 85.0175 12.8623H90.6347C90.5045 12.154 90.1816 11.5837 89.6659 11.1514C89.1503 10.7139 88.5357 10.4951 87.8222 10.4951ZM97.7775 9.29199H98.0509V10.7139H97.7775C96.9181 10.7139 96.2384 10.9665 95.7384 11.4717C95.2436 11.9717 94.9962 12.6488 94.9962 13.5029V17.5811H93.6212V9.4248H94.9962V10.8311C95.6369 9.80501 96.564 9.29199 97.7775 9.29199ZM105.678 9.4248H107.053V17.5811H105.678V16.1123C105.329 16.6331 104.879 17.042 104.327 17.3389C103.78 17.6305 103.173 17.7764 102.506 17.7764C101.741 17.7764 101.045 17.5915 100.42 17.2217C99.7953 16.8467 99.3057 16.3337 98.9516 15.6826C98.6026 15.0264 98.4281 14.2998 98.4281 13.5029C98.4281 12.7061 98.6026 11.9821 98.9516 11.3311C99.3057 10.6748 99.7953 10.1618 100.42 9.79199C101.045 9.41699 101.741 9.22949 102.506 9.22949C103.173 9.22949 103.78 9.37793 104.327 9.6748C104.879 9.96647 105.329 10.3727 105.678 10.8936V9.4248ZM102.764 16.4482C103.597 16.4482 104.29 16.167 104.842 15.6045C105.399 15.042 105.678 14.3415 105.678 13.5029C105.678 12.6644 105.399 11.9639 104.842 11.4014C104.29 10.8389 103.597 10.5576 102.764 10.5576C101.926 10.5576 101.228 10.8389 100.67 11.4014C100.113 11.9639 99.8344 12.6644 99.8344 13.5029C99.8344 14.3415 100.113 15.042 100.67 15.6045C101.228 16.167 101.926 16.4482 102.764 16.4482ZM114.29 17.792C115.066 17.792 115.704 17.9873 116.204 18.3779C116.704 18.7686 116.993 19.3024 117.071 19.9795L115.649 20.3467C115.633 19.9821 115.477 19.6878 115.18 19.4639C114.889 19.2451 114.511 19.1357 114.048 19.1357H111.04C110.363 19.1357 109.813 18.9561 109.391 18.5967C108.975 18.2373 108.766 17.7712 108.766 17.1982C108.766 16.8128 108.855 16.4535 109.032 16.1201C109.214 15.7816 109.462 15.5264 109.774 15.3545C109.42 15.0264 109.144 14.641 108.946 14.1982C108.753 13.7555 108.657 13.279 108.657 12.7686C108.657 11.7581 109.011 10.917 109.719 10.2451C110.433 9.56803 111.321 9.22949 112.383 9.22949C113.107 9.22949 113.774 9.40658 114.383 9.76074C114.462 9.32845 114.667 8.9847 115.001 8.72949C115.334 8.47428 115.748 8.34668 116.243 8.34668H116.868V9.62793H116.321C116.024 9.62793 115.782 9.71126 115.594 9.87793C115.412 10.0394 115.318 10.2555 115.313 10.5264C115.844 11.1566 116.11 11.904 116.11 12.7686C116.11 13.7738 115.753 14.6175 115.04 15.2998C114.326 15.9769 113.441 16.3154 112.383 16.3154C111.743 16.3154 111.167 16.1878 110.657 15.9326C110.495 16.0368 110.368 16.1722 110.274 16.3389C110.186 16.5003 110.141 16.6696 110.141 16.8467C110.141 17.1331 110.248 17.3623 110.462 17.5342C110.675 17.7061 110.954 17.792 111.298 17.792H114.29ZM112.383 10.542C111.722 10.542 111.173 10.7555 110.735 11.1826C110.298 11.6045 110.079 12.1331 110.079 12.7686C110.079 13.4092 110.298 13.943 110.735 14.3701C111.178 14.792 111.727 15.0029 112.383 15.0029C113.04 15.0029 113.587 14.792 114.024 14.3701C114.467 13.943 114.688 13.4092 114.688 12.7686C114.688 12.1331 114.467 11.6045 114.024 11.1826C113.587 10.7555 113.04 10.542 112.383 10.542ZM125.839 13.5029C125.839 13.5811 125.826 13.7842 125.8 14.1123H118.776C118.917 14.8311 119.258 15.4118 119.8 15.8545C120.347 16.292 121.013 16.5107 121.8 16.5107C122.383 16.5107 122.919 16.3883 123.409 16.1436C123.899 15.8936 124.281 15.5732 124.558 15.1826L125.503 15.9951C125.091 16.5472 124.558 16.9821 123.901 17.2998C123.25 17.6175 122.534 17.7764 121.753 17.7764C120.477 17.7764 119.414 17.3649 118.565 16.542C117.716 15.7191 117.292 14.6956 117.292 13.4717C117.292 12.68 117.477 11.9613 117.847 11.3154C118.222 10.6644 118.737 10.154 119.393 9.78418C120.05 9.41439 120.779 9.22949 121.581 9.22949C122.378 9.22949 123.102 9.41439 123.753 9.78418C124.404 10.154 124.914 10.667 125.284 11.3232C125.654 11.9743 125.839 12.7008 125.839 13.5029ZM121.565 10.4951C120.857 10.4951 120.245 10.7165 119.729 11.1592C119.214 11.5967 118.891 12.1644 118.761 12.8623H124.378C124.248 12.154 123.925 11.5837 123.409 11.1514C122.893 10.7139 122.279 10.4951 121.565 10.4951ZM137.585 17.5811L134.288 13.1982H132.671V17.5811H131.202V6.54199H135.679C136.658 6.54199 137.476 6.8623 138.132 7.50293C138.794 8.14355 139.124 8.94303 139.124 9.90137C139.124 10.792 138.827 11.5472 138.234 12.167C137.645 12.7816 136.9 13.1201 135.999 13.1826L139.359 17.5811H137.585ZM132.671 7.91699V11.917H135.648C136.21 11.917 136.679 11.7269 137.054 11.3467C137.429 10.9665 137.617 10.4899 137.617 9.91699C137.617 9.34408 137.429 8.86751 137.054 8.4873C136.679 8.1071 136.21 7.91699 135.648 7.91699H132.671ZM147.306 9.4248H148.681V17.5811H147.306V16.1123C146.957 16.6331 146.507 17.042 145.955 17.3389C145.408 17.6305 144.801 17.7764 144.134 17.7764C143.369 17.7764 142.673 17.5915 142.048 17.2217C141.423 16.8467 140.934 16.3337 140.58 15.6826C140.231 15.0264 140.056 14.2998 140.056 13.5029C140.056 12.7061 140.231 11.9821 140.58 11.3311C140.934 10.6748 141.423 10.1618 142.048 9.79199C142.673 9.41699 143.369 9.22949 144.134 9.22949C144.801 9.22949 145.408 9.37793 145.955 9.6748C146.507 9.96647 146.957 10.3727 147.306 10.8936V9.4248ZM144.392 16.4482C145.226 16.4482 145.918 16.167 146.47 15.6045C147.028 15.042 147.306 14.3415 147.306 13.5029C147.306 12.6644 147.028 11.9639 146.47 11.4014C145.918 10.8389 145.226 10.5576 144.392 10.5576C143.554 10.5576 142.856 10.8389 142.298 11.4014C141.741 11.9639 141.463 12.6644 141.463 13.5029C141.463 14.3415 141.741 15.042 142.298 15.6045C142.856 16.167 143.554 16.4482 144.392 16.4482ZM155.488 10.667H153.035V15.1826C153.035 16.0264 153.473 16.4482 154.348 16.4482C154.728 16.4482 155.108 16.3467 155.488 16.1436V17.4404C155.077 17.6644 154.6 17.7764 154.058 17.7764C153.272 17.7764 152.676 17.5706 152.269 17.1592C151.863 16.7477 151.66 16.1618 151.66 15.4014V10.667H150.191V9.4248H151.66V7.22949H153.035V9.4248H155.488V10.667ZM157.701 7.79199C157.436 7.79199 157.214 7.70605 157.037 7.53418C156.86 7.3571 156.772 7.13835 156.772 6.87793C156.772 6.6123 156.86 6.39355 157.037 6.22168C157.214 6.0498 157.436 5.96387 157.701 5.96387C157.962 5.96387 158.178 6.0498 158.35 6.22168C158.522 6.39355 158.607 6.6123 158.607 6.87793C158.607 7.13835 158.519 7.3571 158.342 7.53418C158.17 7.70605 157.956 7.79199 157.701 7.79199ZM157.014 17.5811V9.4248H158.389V17.5811H157.014ZM164.789 9.22949C165.784 9.22949 166.584 9.53158 167.188 10.1357C167.797 10.7399 168.102 11.542 168.102 12.542V17.5811H166.727V12.9717C166.727 12.2425 166.511 11.6592 166.078 11.2217C165.646 10.779 165.068 10.5576 164.344 10.5576C163.589 10.5576 162.985 10.7816 162.532 11.2295C162.078 11.6774 161.852 12.2686 161.852 13.0029V17.5811H160.477V9.4248H161.852V10.667C162.513 9.70866 163.492 9.22949 164.789 9.22949ZM175.229 17.792C176.005 17.792 176.643 17.9873 177.143 18.3779C177.643 18.7686 177.932 19.3024 178.01 19.9795L176.588 20.3467C176.573 19.9821 176.417 19.6878 176.12 19.4639C175.828 19.2451 175.45 19.1357 174.987 19.1357H171.979C171.302 19.1357 170.753 18.9561 170.331 18.5967C169.914 18.2373 169.706 17.7712 169.706 17.1982C169.706 16.8128 169.794 16.4535 169.971 16.1201C170.154 15.7816 170.401 15.5264 170.713 15.3545C170.359 15.0264 170.083 14.641 169.885 14.1982C169.693 13.7555 169.596 13.279 169.596 12.7686C169.596 11.7581 169.95 10.917 170.659 10.2451C171.372 9.56803 172.26 9.22949 173.323 9.22949C174.047 9.22949 174.713 9.40658 175.323 9.76074C175.401 9.32845 175.607 8.9847 175.94 8.72949C176.273 8.47428 176.687 8.34668 177.182 8.34668H177.807V9.62793H177.26C176.963 9.62793 176.721 9.71126 176.534 9.87793C176.351 10.0394 176.258 10.2555 176.253 10.5264C176.784 11.1566 177.049 11.904 177.049 12.7686C177.049 13.7738 176.693 14.6175 175.979 15.2998C175.266 15.9769 174.38 16.3154 173.323 16.3154C172.682 16.3154 172.107 16.1878 171.596 15.9326C171.435 16.0368 171.307 16.1722 171.213 16.3389C171.125 16.5003 171.081 16.6696 171.081 16.8467C171.081 17.1331 171.187 17.3623 171.401 17.5342C171.614 17.7061 171.893 17.792 172.237 17.792H175.229ZM173.323 10.542C172.661 10.542 172.112 10.7555 171.674 11.1826C171.237 11.6045 171.018 12.1331 171.018 12.7686C171.018 13.4092 171.237 13.943 171.674 14.3701C172.117 14.792 172.667 15.0029 173.323 15.0029C173.979 15.0029 174.526 14.792 174.963 14.3701C175.406 13.943 175.628 13.4092 175.628 12.7686C175.628 12.1331 175.406 11.6045 174.963 11.1826C174.526 10.7555 173.979 10.542 173.323 10.542ZM181.512 17.7764C180.195 17.7764 179.091 17.3493 178.2 16.4951L178.966 15.5029C179.632 16.1852 180.473 16.5264 181.489 16.5264C182.041 16.5264 182.494 16.4248 182.848 16.2217C183.203 16.0133 183.38 15.7295 183.38 15.3701C183.38 15.2191 183.341 15.0837 183.262 14.9639C183.19 14.8389 183.101 14.7373 182.997 14.6592C182.898 14.5811 182.747 14.5055 182.544 14.4326C182.346 14.3545 182.171 14.2972 182.02 14.2607C181.874 14.2191 181.666 14.1644 181.395 14.0967C181.145 14.0342 180.947 13.9847 180.802 13.9482C180.656 13.9066 180.466 13.8441 180.231 13.7607C180.002 13.6774 179.815 13.5967 179.669 13.5186C179.528 13.4404 179.372 13.3389 179.2 13.2139C179.033 13.0837 178.901 12.9482 178.802 12.8076C178.708 12.6618 178.627 12.4899 178.559 12.292C178.497 12.0889 178.466 11.8675 178.466 11.6279C178.466 11.1175 178.611 10.6774 178.903 10.3076C179.195 9.93783 179.572 9.66699 180.036 9.49512C180.499 9.31803 181.018 9.22949 181.591 9.22949C182.768 9.22949 183.765 9.60189 184.583 10.3467L183.809 11.3545C183.21 10.7712 182.476 10.4795 181.606 10.4795C181.111 10.4795 180.7 10.5732 180.372 10.7607C180.044 10.9482 179.88 11.2113 179.88 11.5498C179.88 11.7061 179.919 11.8467 179.997 11.9717C180.075 12.0915 180.164 12.1904 180.262 12.2686C180.367 12.3467 180.523 12.4248 180.731 12.5029C180.94 12.5758 181.114 12.6331 181.255 12.6748C181.401 12.7113 181.614 12.7633 181.895 12.8311C182.14 12.8883 182.335 12.9378 182.481 12.9795C182.632 13.016 182.822 13.0732 183.052 13.1514C183.281 13.2295 183.466 13.3076 183.606 13.3857C183.752 13.4587 183.908 13.5576 184.075 13.6826C184.242 13.8076 184.372 13.9404 184.466 14.0811C184.559 14.2217 184.637 14.3936 184.7 14.5967C184.768 14.7946 184.802 15.0107 184.802 15.2451C184.802 16.0316 184.492 16.6514 183.872 17.1045C183.252 17.5524 182.466 17.7764 181.512 17.7764Z" fill="black"/>
<path d="M296.81 5.57105V6.31105L293.27 4.26105C291.93 3.49105 290.06 3.49105 288.73 4.26105L285.19 6.32105V5.57105C285.19 3.32105 286.42 2.08105 288.67 2.08105H293.33C295.58 2.08105 296.81 3.32105 296.81 5.57105Z" fill="#292D32"/>
<path d="M296.84 8.05129L296.7 7.98129L295.34 7.20129L292.52 5.57129C291.66 5.07129 290.34 5.07129 289.48 5.57129L286.66 7.19129L285.3 7.99129L285.12 8.08129C283.37 9.26129 283.25 9.48129 283.25 11.3713V15.8913C283.25 17.7813 283.37 18.0013 285.16 19.2113L289.48 21.7013C289.91 21.9613 290.45 22.0713 291 22.0713C291.54 22.0713 292.09 21.9513 292.52 21.7013L296.88 19.1813C298.64 18.0013 298.75 17.7913 298.75 15.8913V11.3713C298.75 9.48129 298.63 9.26129 296.84 8.05129ZM293.79 13.5813L293.18 14.3313C293.08 14.4413 293.01 14.6513 293.02 14.8013L293.08 15.7613C293.12 16.3513 292.7 16.6513 292.15 16.4413L291.26 16.0813C291.12 16.0313 290.89 16.0313 290.75 16.0813L289.86 16.4313C289.31 16.6513 288.89 16.3413 288.93 15.7513L288.99 14.7913C289 14.6413 288.93 14.4313 288.83 14.3213L288.21 13.5813C287.83 13.1313 288 12.6313 288.57 12.4813L289.5 12.2413C289.65 12.2013 289.82 12.0613 289.9 11.9413L290.42 11.1413C290.74 10.6413 291.25 10.6413 291.58 11.1413L292.1 11.9413C292.18 12.0713 292.36 12.2013 292.5 12.2413L293.43 12.4813C294 12.6313 294.17 13.1313 293.79 13.5813Z" fill="#292D32"/>
<path d="M305.766 16.2061H310.891V17.5811H303.719V16.4092L307.914 11.8545C308.299 11.4326 308.596 11.042 308.805 10.6826C309.018 10.318 309.125 9.95085 309.125 9.58105C309.125 9.06022 308.932 8.63574 308.547 8.30762C308.167 7.97428 307.688 7.80762 307.109 7.80762C306.604 7.80762 306.135 7.94043 305.703 8.20605C305.271 8.47168 304.898 8.83887 304.586 9.30762L303.562 8.37793C303.938 7.75814 304.445 7.26595 305.086 6.90137C305.727 6.53158 306.43 6.34668 307.195 6.34668C308.201 6.34668 309.023 6.64355 309.664 7.2373C310.31 7.82585 310.633 8.58105 310.633 9.50293C310.633 10.0758 310.508 10.6019 310.258 11.0811C310.008 11.555 309.654 12.042 309.195 12.542L305.766 16.2061ZM316.315 10.5732C317.388 10.5732 318.283 10.9144 319.002 11.5967C319.726 12.279 320.088 13.1279 320.088 14.1436C320.088 15.1852 319.7 16.0524 318.924 16.7451C318.153 17.4326 317.177 17.7764 315.994 17.7764C315.291 17.7764 314.606 17.6357 313.94 17.3545C313.278 17.0732 312.687 16.6644 312.166 16.1279L312.924 14.9717C313.299 15.4092 313.747 15.7503 314.268 15.9951C314.794 16.2399 315.338 16.3623 315.901 16.3623C316.687 16.3623 317.33 16.1488 317.83 15.7217C318.336 15.2894 318.588 14.7529 318.588 14.1123C318.588 13.4873 318.354 12.9665 317.885 12.5498C317.421 12.1279 316.838 11.917 316.135 11.917C315.713 11.917 315.307 11.9951 314.916 12.1514C314.531 12.3024 314.203 12.5081 313.932 12.7686L312.651 12.3623L313.19 6.54199H319.338V7.91699H314.408L314.104 11.2139C314.75 10.7868 315.487 10.5732 316.315 10.5732ZM327.997 12.2373V13.4873H325.372V16.1279H324.09V13.4873H321.465V12.2373H324.09V9.59668H325.372V12.2373H327.997ZM346.86 6.54199H348.384L344.86 17.5811H343.376L340.634 8.68262L337.899 17.5811H336.415L332.892 6.54199H334.446L337.196 15.6436L340.001 6.54199H341.306L344.11 15.6436L346.86 6.54199ZM350.409 7.79199C350.144 7.79199 349.922 7.70605 349.745 7.53418C349.568 7.3571 349.48 7.13835 349.48 6.87793C349.48 6.6123 349.568 6.39355 349.745 6.22168C349.922 6.0498 350.144 5.96387 350.409 5.96387C350.67 5.96387 350.886 6.0498 351.058 6.22168C351.23 6.39355 351.316 6.6123 351.316 6.87793C351.316 7.13835 351.227 7.3571 351.05 7.53418C350.878 7.70605 350.665 7.79199 350.409 7.79199ZM349.722 17.5811V9.4248H351.097V17.5811H349.722ZM357.498 9.22949C358.492 9.22949 359.292 9.53158 359.896 10.1357C360.505 10.7399 360.81 11.542 360.81 12.542V17.5811H359.435V12.9717C359.435 12.2425 359.219 11.6592 358.787 11.2217C358.354 10.779 357.776 10.5576 357.052 10.5576C356.297 10.5576 355.693 10.7816 355.24 11.2295C354.787 11.6774 354.56 12.2686 354.56 13.0029V17.5811H353.185V9.4248H354.56V10.667C355.221 9.70866 356.201 9.22949 357.498 9.22949ZM367.117 9.22949C368.112 9.22949 368.911 9.53158 369.515 10.1357C370.125 10.7399 370.429 11.542 370.429 12.542V17.5811H369.054V12.9717C369.054 12.2425 368.838 11.6592 368.406 11.2217C367.974 10.779 367.396 10.5576 366.672 10.5576C365.916 10.5576 365.312 10.7816 364.859 11.2295C364.406 11.6774 364.179 12.2686 364.179 13.0029V17.5811H362.804V9.4248H364.179V10.667C364.841 9.70866 365.82 9.22949 367.117 9.22949ZM373.111 7.79199C372.846 7.79199 372.624 7.70605 372.447 7.53418C372.27 7.3571 372.182 7.13835 372.182 6.87793C372.182 6.6123 372.27 6.39355 372.447 6.22168C372.624 6.0498 372.846 5.96387 373.111 5.96387C373.372 5.96387 373.588 6.0498 373.76 6.22168C373.932 6.39355 374.018 6.6123 374.018 6.87793C374.018 7.13835 373.929 7.3571 373.752 7.53418C373.58 7.70605 373.366 7.79199 373.111 7.79199ZM372.424 17.5811V9.4248H373.799V17.5811H372.424ZM380.199 9.22949C381.194 9.22949 381.994 9.53158 382.598 10.1357C383.207 10.7399 383.512 11.542 383.512 12.542V17.5811H382.137V12.9717C382.137 12.2425 381.921 11.6592 381.488 11.2217C381.056 10.779 380.478 10.5576 379.754 10.5576C378.999 10.5576 378.395 10.7816 377.942 11.2295C377.488 11.6774 377.262 12.2686 377.262 13.0029V17.5811H375.887V9.4248H377.262V10.667C377.923 9.70866 378.902 9.22949 380.199 9.22949ZM390.639 17.792C391.415 17.792 392.053 17.9873 392.553 18.3779C393.053 18.7686 393.342 19.3024 393.42 19.9795L391.998 20.3467C391.983 19.9821 391.827 19.6878 391.53 19.4639C391.238 19.2451 390.86 19.1357 390.397 19.1357H387.389C386.712 19.1357 386.162 18.9561 385.741 18.5967C385.324 18.2373 385.116 17.7712 385.116 17.1982C385.116 16.8128 385.204 16.4535 385.381 16.1201C385.564 15.7816 385.811 15.5264 386.123 15.3545C385.769 15.0264 385.493 14.641 385.295 14.1982C385.103 13.7555 385.006 13.279 385.006 12.7686C385.006 11.7581 385.36 10.917 386.069 10.2451C386.782 9.56803 387.67 9.22949 388.733 9.22949C389.457 9.22949 390.123 9.40658 390.733 9.76074C390.811 9.32845 391.017 8.9847 391.35 8.72949C391.683 8.47428 392.097 8.34668 392.592 8.34668H393.217V9.62793H392.67C392.373 9.62793 392.131 9.71126 391.944 9.87793C391.761 10.0394 391.668 10.2555 391.662 10.5264C392.194 11.1566 392.459 11.904 392.459 12.7686C392.459 13.7738 392.103 14.6175 391.389 15.2998C390.676 15.9769 389.79 16.3154 388.733 16.3154C388.092 16.3154 387.517 16.1878 387.006 15.9326C386.845 16.0368 386.717 16.1722 386.623 16.3389C386.535 16.5003 386.491 16.6696 386.491 16.8467C386.491 17.1331 386.597 17.3623 386.811 17.5342C387.024 17.7061 387.303 17.792 387.647 17.792H390.639ZM388.733 10.542C388.071 10.542 387.522 10.7555 387.084 11.1826C386.647 11.6045 386.428 12.1331 386.428 12.7686C386.428 13.4092 386.647 13.943 387.084 14.3701C387.527 14.792 388.077 15.0029 388.733 15.0029C389.389 15.0029 389.936 14.792 390.373 14.3701C390.816 13.943 391.037 13.4092 391.037 12.7686C391.037 12.1331 390.816 11.6045 390.373 11.1826C389.936 10.7555 389.389 10.542 388.733 10.542ZM406.245 17.5811L405.175 14.9092H399.768L398.698 17.5811H397.128L401.62 6.54199H403.37L407.862 17.5811H406.245ZM400.315 13.5498H404.636L402.472 8.12793L400.315 13.5498ZM419.208 9.4248H420.716L417.724 17.5811H416.286L414.028 11.0498L411.771 17.5811H410.333L407.341 9.4248H408.888L411.099 15.9014L413.341 9.4248H414.747L417.005 15.917L419.208 9.4248ZM428.202 9.4248H429.577V17.5811H428.202V16.1123C427.854 16.6331 427.403 17.042 426.851 17.3389C426.304 17.6305 425.697 17.7764 425.031 17.7764C424.265 17.7764 423.57 17.5915 422.945 17.2217C422.32 16.8467 421.83 16.3337 421.476 15.6826C421.127 15.0264 420.952 14.2998 420.952 13.5029C420.952 12.7061 421.127 11.9821 421.476 11.3311C421.83 10.6748 422.32 10.1618 422.945 9.79199C423.57 9.41699 424.265 9.22949 425.031 9.22949C425.697 9.22949 426.304 9.37793 426.851 9.6748C427.403 9.96647 427.854 10.3727 428.202 10.8936V9.4248ZM425.288 16.4482C426.122 16.4482 426.814 16.167 427.367 15.6045C427.924 15.042 428.202 14.3415 428.202 13.5029C428.202 12.6644 427.924 11.9639 427.367 11.4014C426.814 10.8389 426.122 10.5576 425.288 10.5576C424.45 10.5576 423.752 10.8389 423.195 11.4014C422.637 11.9639 422.359 12.6644 422.359 13.5029C422.359 14.3415 422.637 15.042 423.195 15.6045C423.752 16.167 424.45 16.4482 425.288 16.4482ZM435.838 9.29199H436.111V10.7139H435.838C434.978 10.7139 434.298 10.9665 433.798 11.4717C433.304 11.9717 433.056 12.6488 433.056 13.5029V17.5811H431.681V9.4248H433.056V10.8311C433.697 9.80501 434.624 9.29199 435.838 9.29199ZM443.738 6.05762H445.113V17.5811H443.738V16.1123C443.389 16.6331 442.939 17.042 442.387 17.3389C441.84 17.6305 441.233 17.7764 440.566 17.7764C439.801 17.7764 439.105 17.5915 438.48 17.2217C437.855 16.8467 437.366 16.3337 437.012 15.6826C436.663 15.0264 436.488 14.2998 436.488 13.5029C436.488 12.7061 436.663 11.9821 437.012 11.3311C437.366 10.6748 437.855 10.1618 438.48 9.79199C439.105 9.41699 439.801 9.22949 440.566 9.22949C441.233 9.22949 441.84 9.37793 442.387 9.6748C442.939 9.96647 443.389 10.3727 443.738 10.8936V6.05762ZM440.824 16.4482C441.657 16.4482 442.35 16.167 442.902 15.6045C443.459 15.042 443.738 14.3415 443.738 13.5029C443.738 12.6644 443.459 11.9639 442.902 11.4014C442.35 10.8389 441.657 10.5576 440.824 10.5576C439.986 10.5576 439.288 10.8389 438.73 11.4014C438.173 11.9639 437.894 12.6644 437.894 13.5029C437.894 14.3415 438.173 15.042 438.73 15.6045C439.288 16.167 439.986 16.4482 440.824 16.4482ZM449.889 17.7764C448.571 17.7764 447.467 17.3493 446.576 16.4951L447.342 15.5029C448.009 16.1852 448.85 16.5264 449.865 16.5264C450.417 16.5264 450.871 16.4248 451.225 16.2217C451.579 16.0133 451.756 15.7295 451.756 15.3701C451.756 15.2191 451.717 15.0837 451.639 14.9639C451.566 14.8389 451.477 14.7373 451.373 14.6592C451.274 14.5811 451.123 14.5055 450.92 14.4326C450.722 14.3545 450.548 14.2972 450.397 14.2607C450.251 14.2191 450.042 14.1644 449.772 14.0967C449.522 14.0342 449.324 13.9847 449.178 13.9482C449.032 13.9066 448.842 13.8441 448.607 13.7607C448.378 13.6774 448.191 13.5967 448.045 13.5186C447.904 13.4404 447.748 13.3389 447.576 13.2139C447.41 13.0837 447.277 12.9482 447.178 12.8076C447.084 12.6618 447.003 12.4899 446.936 12.292C446.873 12.0889 446.842 11.8675 446.842 11.6279C446.842 11.1175 446.988 10.6774 447.279 10.3076C447.571 9.93783 447.949 9.66699 448.412 9.49512C448.876 9.31803 449.394 9.22949 449.967 9.22949C451.144 9.22949 452.141 9.60189 452.959 10.3467L452.186 11.3545C451.587 10.7712 450.852 10.4795 449.982 10.4795C449.488 10.4795 449.076 10.5732 448.748 10.7607C448.42 10.9482 448.256 11.2113 448.256 11.5498C448.256 11.7061 448.295 11.8467 448.373 11.9717C448.451 12.0915 448.54 12.1904 448.639 12.2686C448.743 12.3467 448.899 12.4248 449.107 12.5029C449.316 12.5758 449.49 12.6331 449.631 12.6748C449.777 12.7113 449.99 12.7633 450.272 12.8311C450.516 12.8883 450.712 12.9378 450.857 12.9795C451.009 13.016 451.199 13.0732 451.428 13.1514C451.657 13.2295 451.842 13.3076 451.982 13.3857C452.128 13.4587 452.285 13.5576 452.451 13.6826C452.618 13.8076 452.748 13.9404 452.842 14.0811C452.936 14.2217 453.014 14.3936 453.076 14.5967C453.144 14.7946 453.178 15.0107 453.178 15.2451C453.178 16.0316 452.868 16.6514 452.248 17.1045C451.628 17.5524 450.842 17.7764 449.889 17.7764Z" fill="black"/>
<path d="M565.54 4.2009L560.04 2.1409C559.47 1.9309 558.54 1.9309 557.97 2.1409L552.47 4.2009C551.41 4.6009 550.55 5.8409 550.55 6.9709V15.0709C550.55 15.8809 551.08 16.9509 551.73 17.4309L557.23 21.5409C558.2 22.2709 559.79 22.2709 560.76 21.5409L566.26 17.4309C566.91 16.9409 567.44 15.8809 567.44 15.0709V6.9709C567.45 5.8409 566.59 4.6009 565.54 4.2009ZM562.48 9.8009L558.18 14.1009C558.03 14.2509 557.84 14.3209 557.65 14.3209C557.46 14.3209 557.27 14.2509 557.12 14.1009L555.52 12.4809C555.23 12.1909 555.23 11.7109 555.52 11.4209C555.81 11.1309 556.29 11.1309 556.58 11.4209L557.66 12.5009L561.43 8.7309C561.72 8.4409 562.2 8.4409 562.49 8.7309C562.78 9.0209 562.78 9.5109 562.48 9.8009Z" fill="#292D32"/>
<path d="M577.477 17.7764C576.664 17.7764 575.901 17.6305 575.188 17.3389C574.474 17.042 573.862 16.641 573.352 16.1357C572.841 15.6305 572.438 15.0264 572.141 14.3232C571.849 13.6149 571.703 12.8597 571.703 12.0576C571.703 10.9899 571.953 10.0212 572.453 9.15137C572.953 8.27637 573.643 7.59147 574.523 7.09668C575.409 6.59668 576.393 6.34668 577.477 6.34668C578.482 6.34668 579.406 6.57064 580.25 7.01855C581.094 7.46126 581.776 8.06543 582.297 8.83105L581.031 9.6123C580.651 9.03418 580.151 8.58105 579.531 8.25293C578.911 7.9248 578.227 7.76074 577.477 7.76074C576.878 7.76074 576.312 7.87012 575.781 8.08887C575.255 8.30762 574.805 8.6071 574.43 8.9873C574.055 9.36751 573.758 9.82324 573.539 10.3545C573.32 10.8857 573.211 11.4535 573.211 12.0576C573.211 12.8597 573.396 13.5915 573.766 14.2529C574.135 14.9092 574.646 15.4248 575.297 15.7998C575.953 16.1748 576.68 16.3623 577.477 16.3623C578.227 16.3623 578.911 16.1982 579.531 15.8701C580.151 15.542 580.651 15.0889 581.031 14.5107L582.297 15.292C581.776 16.0576 581.094 16.6644 580.25 17.1123C579.406 17.555 578.482 17.7764 577.477 17.7764ZM591.666 13.5029C591.666 13.5811 591.653 13.7842 591.627 14.1123H584.604C584.744 14.8311 585.086 15.4118 585.627 15.8545C586.174 16.292 586.841 16.5107 587.627 16.5107C588.211 16.5107 588.747 16.3883 589.237 16.1436C589.726 15.8936 590.109 15.5732 590.385 15.1826L591.33 15.9951C590.919 16.5472 590.385 16.9821 589.729 17.2998C589.078 17.6175 588.362 17.7764 587.58 17.7764C586.304 17.7764 585.242 17.3649 584.393 16.542C583.544 15.7191 583.119 14.6956 583.119 13.4717C583.119 12.68 583.304 11.9613 583.674 11.3154C584.049 10.6644 584.565 10.154 585.221 9.78418C585.877 9.41439 586.606 9.22949 587.408 9.22949C588.205 9.22949 588.929 9.41439 589.58 9.78418C590.231 10.154 590.742 10.667 591.112 11.3232C591.481 11.9743 591.666 12.7008 591.666 13.5029ZM587.393 10.4951C586.684 10.4951 586.073 10.7165 585.557 11.1592C585.041 11.5967 584.718 12.1644 584.588 12.8623H590.205C590.075 12.154 589.752 11.5837 589.237 11.1514C588.721 10.7139 588.106 10.4951 587.393 10.4951ZM597.348 9.29199H597.622V10.7139H597.348C596.489 10.7139 595.809 10.9665 595.309 11.4717C594.814 11.9717 594.567 12.6488 594.567 13.5029V17.5811H593.192V9.4248H594.567V10.8311C595.208 9.80501 596.135 9.29199 597.348 9.29199ZM603.671 10.667H601.218V15.1826C601.218 16.0264 601.655 16.4482 602.53 16.4482C602.91 16.4482 603.29 16.3467 603.671 16.1436V17.4404C603.259 17.6644 602.783 17.7764 602.241 17.7764C601.454 17.7764 600.858 17.5706 600.452 17.1592C600.046 16.7477 599.843 16.1618 599.843 15.4014V10.667H598.374V9.4248H599.843V7.22949H601.218V9.4248H603.671V10.667ZM605.884 7.79199C605.618 7.79199 605.397 7.70605 605.22 7.53418C605.043 7.3571 604.954 7.13835 604.954 6.87793C604.954 6.6123 605.043 6.39355 605.22 6.22168C605.397 6.0498 605.618 5.96387 605.884 5.96387C606.144 5.96387 606.36 6.0498 606.532 6.22168C606.704 6.39355 606.79 6.6123 606.79 6.87793C606.79 7.13835 606.701 7.3571 606.524 7.53418C606.353 7.70605 606.139 7.79199 605.884 7.79199ZM605.196 17.5811V9.4248H606.571V17.5811H605.196ZM609.519 8.28418C609.519 7.50814 609.722 6.91178 610.128 6.49512C610.534 6.07845 611.131 5.87012 611.917 5.87012C612.433 5.87012 612.904 5.9821 613.331 6.20605V7.4248C612.972 7.2321 612.597 7.13574 612.206 7.13574C611.331 7.13574 610.894 7.5498 610.894 8.37793V9.4248H613.245V10.667H610.894V17.5811H609.519V10.667H608.034V9.4248H609.519V8.28418ZM615.597 7.79199C615.331 7.79199 615.11 7.70605 614.933 7.53418C614.761 7.3571 614.675 7.13835 614.675 6.87793C614.675 6.6123 614.761 6.39355 614.933 6.22168C615.11 6.0498 615.331 5.96387 615.597 5.96387C615.857 5.96387 616.073 6.0498 616.245 6.22168C616.422 6.39355 616.511 6.6123 616.511 6.87793C616.511 7.13835 616.422 7.3571 616.245 7.53418C616.073 7.70605 615.857 7.79199 615.597 7.79199ZM614.909 17.5811V9.4248H616.284V17.5811H614.909ZM626.404 13.5029C626.404 13.5811 626.391 13.7842 626.365 14.1123H619.341C619.482 14.8311 619.823 15.4118 620.365 15.8545C620.912 16.292 621.578 16.5107 622.365 16.5107C622.948 16.5107 623.484 16.3883 623.974 16.1436C624.464 15.8936 624.846 15.5732 625.123 15.1826L626.068 15.9951C625.656 16.5472 625.123 16.9821 624.466 17.2998C623.815 17.6175 623.099 17.7764 622.318 17.7764C621.042 17.7764 619.979 17.3649 619.13 16.542C618.281 15.7191 617.857 14.6956 617.857 13.4717C617.857 12.68 618.042 11.9613 618.412 11.3154C618.787 10.6644 619.302 10.154 619.958 9.78418C620.615 9.41439 621.344 9.22949 622.146 9.22949C622.943 9.22949 623.667 9.41439 624.318 9.78418C624.969 10.154 625.479 10.667 625.849 11.3232C626.219 11.9743 626.404 12.7008 626.404 13.5029ZM622.13 10.4951C621.422 10.4951 620.81 10.7165 620.294 11.1592C619.779 11.5967 619.456 12.1644 619.326 12.8623H624.943C624.813 12.154 624.49 11.5837 623.974 11.1514C623.458 10.7139 622.844 10.4951 622.13 10.4951ZM634.679 6.05762H636.054V17.5811H634.679V16.1123C634.33 16.6331 633.88 17.042 633.328 17.3389C632.781 17.6305 632.174 17.7764 631.507 17.7764C630.742 17.7764 630.047 17.5915 629.422 17.2217C628.797 16.8467 628.307 16.3337 627.953 15.6826C627.604 15.0264 627.429 14.2998 627.429 13.5029C627.429 12.7061 627.604 11.9821 627.953 11.3311C628.307 10.6748 628.797 10.1618 629.422 9.79199C630.047 9.41699 630.742 9.22949 631.507 9.22949C632.174 9.22949 632.781 9.37793 633.328 9.6748C633.88 9.96647 634.33 10.3727 634.679 10.8936V6.05762ZM631.765 16.4482C632.599 16.4482 633.291 16.167 633.843 15.6045C634.401 15.042 634.679 14.3415 634.679 13.5029C634.679 12.6644 634.401 11.9639 633.843 11.4014C633.291 10.8389 632.599 10.5576 631.765 10.5576C630.927 10.5576 630.229 10.8389 629.672 11.4014C629.114 11.9639 628.836 12.6644 628.836 13.5029C628.836 14.3415 629.114 15.042 629.672 15.6045C630.229 16.167 630.927 16.4482 631.765 16.4482ZM646.543 6.54199C647.554 6.54199 648.395 6.87272 649.067 7.53418C649.738 8.19564 650.074 9.02116 650.074 10.0107C650.074 10.9951 649.736 11.818 649.059 12.4795C648.387 13.141 647.548 13.4717 646.543 13.4717H643.465V17.5811H641.996V6.54199H646.543ZM646.504 12.0967C647.098 12.0967 647.59 11.8988 647.981 11.5029C648.376 11.1071 648.574 10.6097 648.574 10.0107C648.574 9.41178 648.376 8.91439 647.981 8.51855C647.59 8.11751 647.098 7.91699 646.504 7.91699H643.465V12.0967H646.504ZM655.678 9.29199H655.952V10.7139H655.678C654.819 10.7139 654.139 10.9665 653.639 11.4717C653.144 11.9717 652.897 12.6488 652.897 13.5029V17.5811H651.522V9.4248H652.897V10.8311C653.537 9.80501 654.465 9.29199 655.678 9.29199ZM660.649 17.7764C659.837 17.7764 659.097 17.5915 658.43 17.2217C657.764 16.8467 657.24 16.3337 656.86 15.6826C656.485 15.0264 656.298 14.2998 656.298 13.5029C656.298 12.7061 656.485 11.9821 656.86 11.3311C657.24 10.6748 657.764 10.1618 658.43 9.79199C659.097 9.41699 659.837 9.22949 660.649 9.22949C661.878 9.22949 662.907 9.63835 663.735 10.4561C664.568 11.2738 664.985 12.2894 664.985 13.5029C664.985 14.7165 664.568 15.7321 663.735 16.5498C662.907 17.3675 661.878 17.7764 660.649 17.7764ZM660.649 16.4482C661.482 16.4482 662.175 16.167 662.727 15.6045C663.284 15.042 663.563 14.3415 663.563 13.5029C663.563 12.6644 663.284 11.9639 662.727 11.4014C662.175 10.8389 661.482 10.5576 660.649 10.5576C659.811 10.5576 659.113 10.8389 658.555 11.4014C657.998 11.9639 657.719 12.6644 657.719 13.5029C657.719 14.3415 657.998 15.042 658.555 15.6045C659.113 16.167 659.811 16.4482 660.649 16.4482ZM673.308 6.05762H674.683V17.5811H673.308V16.1123C672.959 16.6331 672.508 17.042 671.956 17.3389C671.409 17.6305 670.802 17.7764 670.136 17.7764C669.37 17.7764 668.675 17.5915 668.05 17.2217C667.425 16.8467 666.935 16.3337 666.581 15.6826C666.232 15.0264 666.058 14.2998 666.058 13.5029C666.058 12.7061 666.232 11.9821 666.581 11.3311C666.935 10.6748 667.425 10.1618 668.05 9.79199C668.675 9.41699 669.37 9.22949 670.136 9.22949C670.802 9.22949 671.409 9.37793 671.956 9.6748C672.508 9.96647 672.959 10.3727 673.308 10.8936V6.05762ZM670.393 16.4482C671.227 16.4482 671.919 16.167 672.472 15.6045C673.029 15.042 673.308 14.3415 673.308 13.5029C673.308 12.6644 673.029 11.9639 672.472 11.4014C671.919 10.8389 671.227 10.5576 670.393 10.5576C669.555 10.5576 668.857 10.8389 668.3 11.4014C667.742 11.9639 667.464 12.6644 667.464 13.5029C667.464 14.3415 667.742 15.042 668.3 15.6045C668.857 16.167 669.555 16.4482 670.393 16.4482ZM683.028 16.8389C682.357 17.4639 681.463 17.7764 680.349 17.7764C679.234 17.7764 678.338 17.4639 677.661 16.8389C676.989 16.2087 676.653 15.3779 676.653 14.3467V9.4248H678.028V14.1592C678.028 14.8467 678.239 15.4014 678.661 15.8232C679.088 16.2399 679.651 16.4482 680.349 16.4482C681.047 16.4482 681.607 16.2399 682.028 15.8232C682.456 15.4014 682.669 14.8467 682.669 14.1592V9.4248H684.044V14.3467C684.044 15.3779 683.706 16.2087 683.028 16.8389ZM689.835 17.7764C689.023 17.7764 688.283 17.5915 687.617 17.2217C686.95 16.8467 686.426 16.3337 686.046 15.6826C685.671 15.0264 685.484 14.2998 685.484 13.5029C685.484 12.7061 685.671 11.9821 686.046 11.3311C686.426 10.6748 686.95 10.1618 687.617 9.79199C688.283 9.41699 689.023 9.22949 689.835 9.22949C690.637 9.22949 691.367 9.41439 692.023 9.78418C692.679 10.1488 693.192 10.6462 693.562 11.2764L692.367 11.9951C692.117 11.5524 691.768 11.2035 691.32 10.9482C690.872 10.6878 690.377 10.5576 689.835 10.5576C688.997 10.5576 688.299 10.8389 687.742 11.4014C687.184 11.9639 686.906 12.6644 686.906 13.5029C686.906 14.3415 687.184 15.042 687.742 15.6045C688.299 16.167 688.997 16.4482 689.835 16.4482C690.377 16.4482 690.872 16.318 691.32 16.0576C691.768 15.7972 692.117 15.4456 692.367 15.0029L693.562 15.7217C693.192 16.3571 692.676 16.8597 692.015 17.2295C691.359 17.5941 690.632 17.7764 689.835 17.7764ZM699.603 10.667H697.15V15.1826C697.15 16.0264 697.588 16.4482 698.463 16.4482C698.843 16.4482 699.223 16.3467 699.603 16.1436V17.4404C699.192 17.6644 698.715 17.7764 698.173 17.7764C697.387 17.7764 696.791 17.5706 696.384 17.1592C695.978 16.7477 695.775 16.1618 695.775 15.4014V10.667H694.306V9.4248H695.775V7.22949H697.15V9.4248H699.603V10.667ZM709.225 6.54199C710.277 6.54199 711.23 6.78158 712.084 7.26074C712.938 7.73991 713.607 8.40137 714.092 9.24512C714.576 10.0837 714.818 11.0212 714.818 12.0576C714.818 13.0941 714.576 14.0342 714.092 14.8779C713.607 15.7217 712.938 16.3831 712.084 16.8623C711.23 17.3415 710.277 17.5811 709.225 17.5811H704.967V6.54199H709.225ZM709.209 16.2061C710.376 16.2061 711.352 15.8102 712.139 15.0186C712.925 14.2269 713.318 13.2399 713.318 12.0576C713.318 11.2816 713.139 10.5785 712.779 9.94824C712.425 9.31283 711.933 8.81543 711.303 8.45605C710.678 8.09668 709.98 7.91699 709.209 7.91699H706.436V16.2061H709.209ZM724.524 13.5029C724.524 13.5811 724.511 13.7842 724.485 14.1123H717.461C717.602 14.8311 717.943 15.4118 718.485 15.8545C719.032 16.292 719.698 16.5107 720.485 16.5107C721.068 16.5107 721.604 16.3883 722.094 16.1436C722.584 15.8936 722.966 15.5732 723.242 15.1826L724.188 15.9951C723.776 16.5472 723.242 16.9821 722.586 17.2998C721.935 17.6175 721.219 17.7764 720.438 17.7764C719.162 17.7764 718.099 17.3649 717.25 16.542C716.401 15.7191 715.977 14.6956 715.977 13.4717C715.977 12.68 716.162 11.9613 716.532 11.3154C716.907 10.6644 717.422 10.154 718.078 9.78418C718.735 9.41439 719.464 9.22949 720.266 9.22949C721.063 9.22949 721.787 9.41439 722.438 9.78418C723.089 10.154 723.599 10.667 723.969 11.3232C724.339 11.9743 724.524 12.7008 724.524 13.5029ZM720.25 10.4951C719.542 10.4951 718.93 10.7165 718.414 11.1592C717.899 11.5967 717.576 12.1644 717.446 12.8623H723.063C722.933 12.154 722.61 11.5837 722.094 11.1514C721.578 10.7139 720.964 10.4951 720.25 10.4951ZM728.721 17.7764C727.404 17.7764 726.299 17.3493 725.409 16.4951L726.174 15.5029C726.841 16.1852 727.682 16.5264 728.698 16.5264C729.25 16.5264 729.703 16.4248 730.057 16.2217C730.411 16.0133 730.588 15.7295 730.588 15.3701C730.588 15.2191 730.549 15.0837 730.471 14.9639C730.398 14.8389 730.31 14.7373 730.206 14.6592C730.107 14.5811 729.956 14.5055 729.753 14.4326C729.555 14.3545 729.38 14.2972 729.229 14.2607C729.083 14.2191 728.875 14.1644 728.604 14.0967C728.354 14.0342 728.156 13.9847 728.01 13.9482C727.864 13.9066 727.674 13.8441 727.44 13.7607C727.211 13.6774 727.023 13.5967 726.878 13.5186C726.737 13.4404 726.581 13.3389 726.409 13.2139C726.242 13.0837 726.109 12.9482 726.01 12.8076C725.917 12.6618 725.836 12.4899 725.768 12.292C725.706 12.0889 725.674 11.8675 725.674 11.6279C725.674 11.1175 725.82 10.6774 726.112 10.3076C726.404 9.93783 726.781 9.66699 727.245 9.49512C727.708 9.31803 728.226 9.22949 728.799 9.22949C729.976 9.22949 730.974 9.60189 731.792 10.3467L731.018 11.3545C730.419 10.7712 729.685 10.4795 728.815 10.4795C728.32 10.4795 727.909 10.5732 727.581 10.7607C727.253 10.9482 727.088 11.2113 727.088 11.5498C727.088 11.7061 727.128 11.8467 727.206 11.9717C727.284 12.0915 727.372 12.1904 727.471 12.2686C727.575 12.3467 727.732 12.4248 727.94 12.5029C728.148 12.5758 728.323 12.6331 728.463 12.6748C728.609 12.7113 728.823 12.7633 729.104 12.8311C729.349 12.8883 729.544 12.9378 729.69 12.9795C729.841 13.016 730.031 13.0732 730.26 13.1514C730.489 13.2295 730.674 13.3076 730.815 13.3857C730.961 13.4587 731.117 13.5576 731.284 13.6826C731.45 13.8076 731.581 13.9404 731.674 14.0811C731.768 14.2217 731.846 14.3936 731.909 14.5967C731.976 14.7946 732.01 15.0107 732.01 15.2451C732.01 16.0316 731.7 16.6514 731.081 17.1045C730.461 17.5524 729.674 17.7764 728.721 17.7764ZM734.2 7.79199C733.934 7.79199 733.713 7.70605 733.536 7.53418C733.359 7.3571 733.27 7.13835 733.27 6.87793C733.27 6.6123 733.359 6.39355 733.536 6.22168C733.713 6.0498 733.934 5.96387 734.2 5.96387C734.46 5.96387 734.677 6.0498 734.848 6.22168C735.02 6.39355 735.106 6.6123 735.106 6.87793C735.106 7.13835 735.018 7.3571 734.841 7.53418C734.669 7.70605 734.455 7.79199 734.2 7.79199ZM733.512 17.5811V9.4248H734.887V17.5811H733.512ZM742.108 17.792C742.884 17.792 743.523 17.9873 744.023 18.3779C744.523 18.7686 744.812 19.3024 744.89 19.9795L743.468 20.3467C743.452 19.9821 743.296 19.6878 742.999 19.4639C742.707 19.2451 742.33 19.1357 741.866 19.1357H738.858C738.181 19.1357 737.632 18.9561 737.21 18.5967C736.793 18.2373 736.585 17.7712 736.585 17.1982C736.585 16.8128 736.674 16.4535 736.851 16.1201C737.033 15.7816 737.28 15.5264 737.593 15.3545C737.239 15.0264 736.963 14.641 736.765 14.1982C736.572 13.7555 736.476 13.279 736.476 12.7686C736.476 11.7581 736.83 10.917 737.538 10.2451C738.252 9.56803 739.14 9.22949 740.202 9.22949C740.926 9.22949 741.593 9.40658 742.202 9.76074C742.28 9.32845 742.486 8.9847 742.819 8.72949C743.153 8.47428 743.567 8.34668 744.062 8.34668H744.687V9.62793H744.14C743.843 9.62793 743.601 9.71126 743.413 9.87793C743.231 10.0394 743.137 10.2555 743.132 10.5264C743.663 11.1566 743.929 11.904 743.929 12.7686C743.929 13.7738 743.572 14.6175 742.858 15.2998C742.145 15.9769 741.259 16.3154 740.202 16.3154C739.562 16.3154 738.986 16.1878 738.476 15.9326C738.314 16.0368 738.187 16.1722 738.093 16.3389C738.004 16.5003 737.96 16.6696 737.96 16.8467C737.96 17.1331 738.067 17.3623 738.28 17.5342C738.494 17.7061 738.773 17.792 739.116 17.792H742.108ZM740.202 10.542C739.541 10.542 738.991 10.7555 738.554 11.1826C738.116 11.6045 737.898 12.1331 737.898 12.7686C737.898 13.4092 738.116 13.943 738.554 14.3701C738.996 14.792 739.546 15.0029 740.202 15.0029C740.858 15.0029 741.405 14.792 741.843 14.3701C742.286 13.943 742.507 13.4092 742.507 12.7686C742.507 12.1331 742.286 11.6045 741.843 11.1826C741.405 10.7555 740.858 10.542 740.202 10.542ZM750.033 9.22949C751.027 9.22949 751.827 9.53158 752.431 10.1357C753.04 10.7399 753.345 11.542 753.345 12.542V17.5811H751.97V12.9717C751.97 12.2425 751.754 11.6592 751.322 11.2217C750.889 10.779 750.311 10.5576 749.587 10.5576C748.832 10.5576 748.228 10.7816 747.775 11.2295C747.322 11.6774 747.095 12.2686 747.095 13.0029V17.5811H745.72V9.4248H747.095V10.667C747.756 9.70866 748.736 9.22949 750.033 9.22949ZM763.355 13.5029C763.355 13.5811 763.342 13.7842 763.316 14.1123H756.292C756.433 14.8311 756.774 15.4118 757.316 15.8545C757.863 16.292 758.529 16.5107 759.316 16.5107C759.899 16.5107 760.436 16.3883 760.925 16.1436C761.415 15.8936 761.798 15.5732 762.074 15.1826L763.019 15.9951C762.608 16.5472 762.074 16.9821 761.417 17.2998C760.766 17.6175 760.05 17.7764 759.269 17.7764C757.993 17.7764 756.931 17.3649 756.082 16.542C755.233 15.7191 754.808 14.6956 754.808 13.4717C754.808 12.68 754.993 11.9613 755.363 11.3154C755.738 10.6644 756.253 10.154 756.91 9.78418C757.566 9.41439 758.295 9.22949 759.097 9.22949C759.894 9.22949 760.618 9.41439 761.269 9.78418C761.92 10.154 762.431 10.667 762.8 11.3232C763.17 11.9743 763.355 12.7008 763.355 13.5029ZM759.082 10.4951C758.373 10.4951 757.761 10.7165 757.246 11.1592C756.73 11.5967 756.407 12.1644 756.277 12.8623H761.894C761.764 12.154 761.441 11.5837 760.925 11.1514C760.41 10.7139 759.795 10.4951 759.082 10.4951ZM769.037 9.29199H769.31V10.7139H769.037C768.178 10.7139 767.498 10.9665 766.998 11.4717C766.503 11.9717 766.256 12.6488 766.256 13.5029V17.5811H764.881V9.4248H766.256V10.8311C766.896 9.80501 767.823 9.29199 769.037 9.29199Z" fill="black"/>
</svg>
