<svg width="36" height="36" viewBox="0 0 36 36" fill="none" xmlns="http://www.w3.org/2000/svg">
<rect width="36" height="36" fill="white"/>
<g id="Desktop - 1" clip-path="url(#clip0_0_1)">
<rect width="1440" height="7845" transform="translate(-71 -499)" fill="white"/>
<g id="Frame 11">
<g id="Frame 67">
<g id="Frame 4">
<g id="vuesax/bold/quote-up">
<g id="vuesax/bold/quote-up_2">
<g id="quote-up">
<path id="Vector" d="M12.135 17.445H5.1C5.22 10.44 6.6 9.28499 10.905 6.73499C11.4 6.43499 11.565 5.80499 11.265 5.29499C10.98 4.79999 10.335 4.63499 9.84 4.93499C4.77 7.93499 3 9.76499 3 18.48V26.565C3 29.13 5.085 31.2 7.635 31.2H12.135C14.775 31.2 16.77 29.205 16.77 26.565V22.065C16.77 19.44 14.775 17.445 12.135 17.445Z" fill="#344054"/>
<path id="Vector_2" d="M28.3651 17.445H21.3301C21.4501 10.44 22.8301 9.28499 27.1351 6.73499C27.6301 6.43499 27.7951 5.80499 27.4951 5.29499C27.1951 4.79999 26.5651 4.63499 26.0551 4.93499C20.9851 7.93499 19.2151 9.76499 19.2151 18.495V26.58C19.2151 29.145 21.3001 31.215 23.8501 31.215H28.3501C30.9901 31.215 32.9851 29.22 32.9851 26.58V22.08C33.0001 19.44 31.0051 17.445 28.3651 17.445Z" fill="#344054"/>
</g>
</g>
</g>
</g>
</g>
</g>
</g>
<defs>
<clipPath id="clip0_0_1">
<rect width="1440" height="7845" fill="white" transform="translate(-71 -499)"/>
</clipPath>
</defs>
</svg>
